{"glyphs":{"0":{"ha":660,"x_min":28,"x_max":633,"o":"m 603 794 q 626 728 618 763 q 633 649 633 693 l 633 381 q 626 299 633 335 q 603 232 618 264 q 595 219 599 225 q 588 207 592 214 l 561 150 q 458 40 525 81 q 311 0 390 0 q 164 40 231 0 q 61 150 97 81 q 36 218 44 183 q 28 297 28 253 l 28 565 q 34 637 28 606 q 54 697 40 668 l 72 739 q 94 796 81 769 q 201 908 133 867 q 349 949 268 949 q 496 907 428 949 q 603 794 564 865 m 608 649 q 579 783 608 725 q 483 886 544 849 q 349 924 421 924 q 213 886 274 924 q 118 783 151 849 q 88 649 88 726 l 88 381 q 95 306 88 339 q 118 244 103 274 q 213 142 151 179 q 349 106 274 106 q 483 142 421 106 q 579 244 544 179 q 601 306 594 274 q 608 381 608 339 l 608 649 m 383 379 q 381 356 383 364 q 371 339 379 347 q 349 331 363 331 q 324 340 335 331 q 313 367 313 350 l 313 649 q 315 673 313 664 q 325 689 317 682 q 335 694 331 692 q 347 697 340 697 q 372 688 361 697 q 383 663 383 679 l 383 379 m 594 633 l 594 367 q 557 235 594 292 q 463 148 519 178 q 338 119 406 118 q 208 163 269 121 q 121 268 149 203 q 104 331 107 300 q 101 394 101 363 l 101 663 q 139 794 101 738 q 233 881 176 850 q 358 909 290 911 q 488 865 426 907 q 539 819 518 844 q 575 760 560 794 q 591 697 588 728 q 594 633 594 667 m 546 596 q 545 653 546 625 q 539 707 544 681 q 520 758 533 733 q 482 807 507 783 q 377 858 435 851 q 269 844 319 865 q 184 774 218 822 q 150 663 150 726 l 150 433 q 151 376 150 404 q 156 322 151 347 q 174 271 161 296 q 213 222 188 246 q 318 170 260 178 q 427 185 376 163 q 512 254 478 207 q 546 367 546 301 l 546 596 m 479 775 q 509 728 500 751 q 521 679 518 704 q 522 628 524 654 q 521 576 521 603 l 521 367 q 488 264 521 306 q 408 204 456 222 q 308 197 361 186 q 217 253 256 207 q 187 301 196 276 q 175 350 178 325 q 174 401 172 375 q 175 453 175 426 l 175 663 q 208 765 175 722 q 288 824 240 807 q 387 831 335 842 q 479 775 439 821 m 463 321 q 469 356 467 332 q 471 407 471 381 q 471 457 471 433 q 471 492 471 481 l 471 663 q 440 745 471 714 q 370 784 410 776 q 291 773 331 792 q 233 707 251 754 q 227 672 229 696 q 224 622 225 649 q 224 572 224 596 q 225 538 225 549 l 225 367 q 255 284 225 315 q 325 245 285 253 q 404 256 365 238 q 463 321 443 274 m 447 511 q 448 435 447 472 q 446 360 449 397 q 412 289 443 311 q 344 267 381 267 q 278 293 308 268 q 249 367 249 318 l 249 518 q 248 594 249 556 q 250 669 247 632 q 284 740 253 717 q 351 761 315 763 q 417 735 388 760 q 447 663 447 710 l 447 511 m 381 329 q 395 353 393 340 q 397 381 397 365 l 397 436 l 397 663 q 389 690 397 678 q 368 707 381 701 q 342 711 356 713 q 315 700 328 710 q 301 676 303 689 q 299 647 299 663 l 299 592 l 299 367 q 307 338 299 350 q 328 321 315 326 q 354 317 340 315 q 381 329 368 318 z "},"1":{"ha":468,"x_min":22,"x_max":432,"o":"m 56 949 l 432 949 l 432 79 l 428 79 l 392 0 l 143 0 l 121 22 l 121 592 l 22 592 l 22 863 l 56 938 l 56 949 m 407 104 l 407 924 l 82 924 l 82 697 l 181 697 l 181 104 l 407 104 m 392 910 l 392 121 l 194 121 l 194 713 l 96 713 l 96 910 l 194 910 l 293 910 l 392 910 l 392 910 m 342 169 l 342 861 l 144 861 l 144 763 l 243 763 l 243 169 l 342 169 l 342 169 m 318 836 l 318 194 l 268 194 l 268 786 l 169 786 l 169 836 l 318 836 l 318 836 z "},"2":{"ha":660,"x_min":24,"x_max":631,"o":"m 304 397 q 294 358 293 383 q 294 318 294 332 l 343 318 l 363 318 l 590 318 l 590 121 l 96 121 l 97 358 l 97 376 q 144 514 100 453 q 263 600 189 575 q 301 610 282 607 q 340 614 319 614 q 376 626 361 614 q 393 661 392 638 q 379 699 394 686 q 345 712 364 711 q 310 701 326 713 q 294 664 294 689 l 96 664 q 121 775 96 726 q 187 856 146 824 q 278 901 228 888 q 381 908 329 915 q 478 872 432 901 q 557 788 525 842 q 585 712 578 751 q 588 633 593 672 q 566 556 583 593 q 519 490 549 519 q 454 442 488 458 q 378 419 421 425 q 339 417 358 417 q 304 397 319 418 m 343 268 l 244 268 q 244 297 244 278 q 245 338 244 317 q 248 379 246 360 q 254 408 250 399 q 307 458 271 444 q 340 465 324 465 q 374 468 357 465 q 441 492 410 474 q 494 536 472 510 q 528 596 517 563 q 540 667 540 629 q 490 796 539 742 q 367 860 442 850 q 294 855 329 864 q 231 826 260 846 q 182 778 203 807 q 153 713 161 749 l 258 713 q 290 746 271 733 q 331 761 310 758 q 375 757 353 764 q 414 732 397 750 q 438 692 431 714 q 441 648 444 669 q 424 607 438 626 q 389 576 411 588 q 344 565 367 565 q 300 560 322 565 q 218 519 254 549 q 167 456 186 493 q 146 376 149 418 l 146 169 l 540 169 l 540 268 l 363 268 l 343 268 m 221 375 q 219 310 218 343 q 219 243 219 276 l 343 243 l 363 243 l 517 243 l 517 194 l 171 194 l 171 375 q 198 460 174 421 q 264 521 222 499 q 310 535 288 532 q 358 540 333 538 q 440 588 408 546 q 467 653 465 619 q 456 713 469 686 q 417 760 443 740 q 362 786 392 781 q 301 781 332 792 q 244 738 269 771 l 188 738 q 226 790 201 768 q 281 824 251 813 q 344 836 311 836 q 410 822 378 836 q 502 732 475 794 q 506 603 529 669 q 472 546 493 568 q 419 508 451 524 q 388 497 404 500 q 356 490 372 493 q 323 488 339 489 q 292 479 307 486 q 242 437 260 464 q 221 375 224 410 m 53 411 l 53 410 l 53 411 m 51 408 q 53 410 51 410 l 51 408 m 481 357 l 629 357 l 629 79 l 625 79 l 589 0 l 24 0 l 24 294 q 47 400 24 349 l 51 407 l 51 406 l 53 410 l 67 440 q 113 536 79 492 l 118 543 l 24 543 l 24 579 q 49 700 24 646 l 68 742 q 147 872 88 818 q 240 928 188 908 q 346 949 292 949 q 487 912 422 949 q 590 808 551 875 q 620 737 610 775 q 631 663 631 699 q 583 508 631 579 l 564 464 q 508 382 542 415 l 481 357 m 307 331 q 308 361 307 343 q 314 388 308 379 q 333 401 324 399 q 358 403 343 403 q 379 404 372 403 q 461 428 425 411 q 529 479 497 446 q 578 549 560 510 q 601 631 596 589 q 599 715 607 672 q 568 794 590 757 q 474 890 532 857 q 346 924 417 924 q 248 905 296 924 q 164 853 200 886 q 103 767 124 817 q 83 663 83 718 l 83 649 l 307 649 l 307 663 q 319 688 307 681 q 343 696 332 696 q 369 686 361 696 q 378 660 379 676 q 365 634 376 640 q 339 628 354 628 q 298 623 318 626 q 257 613 278 619 q 188 576 219 600 q 133 521 157 553 q 97 453 110 489 q 83 376 85 417 l 83 106 l 604 106 l 604 331 l 307 331 z "},"3":{"ha":660,"x_min":29,"x_max":635,"o":"m 635 660 q 626 583 635 618 q 596 514 617 549 q 626 443 617 479 q 635 367 635 407 q 632 323 635 344 q 622 279 629 301 q 607 242 615 260 q 588 207 599 224 l 569 168 q 502 74 546 114 q 400 15 458 35 q 311 0 358 0 q 205 21 256 0 q 114 81 154 42 q 51 173 72 121 q 29 283 29 225 l 29 319 l 63 394 l 63 406 l 126 406 l 126 543 l 29 543 l 29 579 q 53 696 29 640 l 74 739 q 113 823 86 785 q 175 889 139 861 q 256 933 211 917 q 349 949 300 949 q 439 933 397 949 q 553 862 506 910 q 622 749 601 814 q 632 705 629 726 q 635 660 635 683 m 597 288 q 608 405 617 346 q 564 514 599 464 q 608 622 599 564 q 597 740 617 681 q 535 845 578 801 q 431 908 493 889 q 349 922 393 922 q 247 901 294 922 q 163 845 199 881 q 108 763 128 810 q 88 661 88 715 l 88 647 l 314 647 l 314 661 q 325 688 314 678 q 349 697 336 697 q 361 695 356 697 q 374 686 367 693 q 381 647 390 669 q 369 633 378 640 q 349 626 361 626 l 186 626 l 186 400 l 201 400 l 296 400 q 308 401 304 400 l 326 401 q 350 400 333 401 q 375 389 367 399 q 383 357 388 374 q 361 333 376 338 q 349 331 353 331 q 324 340 333 331 q 314 365 314 350 l 314 379 l 88 379 l 88 365 q 108 265 88 313 q 167 179 129 217 q 250 124 203 143 q 349 104 297 104 q 390 108 369 104 q 431 118 411 111 q 535 183 493 139 q 597 288 578 226 m 425 899 q 525 835 485 878 q 583 738 565 792 q 591 624 600 683 q 544 515 582 565 q 591 407 582 465 q 583 294 600 349 q 525 197 565 240 q 425 133 485 154 q 307 124 365 114 q 203 168 249 135 q 128 253 157 201 q 100 368 100 306 l 299 368 q 319 327 299 342 q 364 322 340 313 q 395 356 389 331 q 385 400 401 381 q 365 413 376 408 q 340 417 353 417 q 315 417 328 418 q 294 417 303 417 l 199 417 l 199 615 l 346 615 q 375 622 363 614 q 393 644 388 631 q 397 672 399 657 q 383 699 394 686 q 356 713 371 711 q 329 710 342 715 q 308 692 317 704 q 299 664 299 681 l 100 664 q 128 778 100 726 q 203 864 157 831 q 307 908 249 897 q 425 899 365 918 m 483 515 q 531 593 513 556 q 543 683 549 631 q 514 770 539 731 q 449 833 489 810 q 360 861 407 858 q 272 847 314 864 q 199 796 231 831 q 156 714 168 761 l 261 714 q 299 751 275 739 q 347 763 322 763 q 396 750 372 763 q 433 713 419 738 q 446 661 447 688 q 431 613 444 635 q 396 577 418 590 q 344 565 374 564 l 249 565 l 249 467 q 274 467 256 467 q 312 467 292 467 q 351 465 332 467 q 376 463 369 464 q 428 426 408 453 q 446 365 447 399 q 423 303 444 328 q 372 272 401 279 q 310 275 342 264 q 261 318 279 286 l 156 318 q 199 235 168 269 q 272 185 231 201 q 360 171 314 168 q 449 199 407 174 q 514 262 489 222 q 543 349 539 301 q 531 439 549 401 q 483 515 513 476 m 458 796 q 506 733 490 769 q 519 656 522 696 q 497 579 517 611 q 451 515 476 547 q 497 452 476 483 q 519 376 517 421 q 506 299 522 336 q 458 236 490 263 q 388 199 426 208 q 311 199 349 190 q 242 231 274 207 q 192 294 210 256 l 249 294 q 299 254 269 267 q 359 244 329 242 q 416 265 389 247 q 458 314 443 282 q 471 377 474 344 q 451 435 468 410 q 407 477 435 461 q 344 492 379 493 l 274 492 l 274 540 l 344 540 q 407 555 379 539 q 451 597 435 571 q 471 654 468 622 q 458 718 474 686 q 416 767 443 749 q 359 788 389 785 q 299 778 329 790 q 249 738 269 765 l 192 738 q 242 801 210 776 q 311 833 274 825 q 388 833 349 842 q 458 796 426 824 z "},"4":{"ha":660,"x_min":24,"x_max":632,"o":"m 632 949 l 632 79 l 626 79 l 590 0 l 321 0 l 321 247 q 242 256 281 249 q 161 288 203 263 q 82 358 113 319 q 36 451 51 396 q 26 513 28 479 q 24 581 24 546 l 24 863 l 58 938 l 58 949 l 336 949 l 336 896 l 354 938 l 354 949 l 632 949 m 606 924 l 379 924 l 379 578 l 378 578 l 360 578 q 314 599 321 578 q 310 619 311 601 q 310 690 308 638 l 310 699 l 310 924 l 83 924 l 83 726 l 83 703 q 83 617 82 663 q 94 540 85 571 q 137 452 110 488 q 210 389 164 417 q 295 358 253 364 q 379 353 338 353 l 379 106 l 606 106 l 606 924 m 590 617 l 590 124 l 393 124 l 393 369 q 303 374 346 369 q 217 406 260 379 q 147 465 172 432 q 107 547 122 499 q 101 588 103 564 q 98 638 99 613 q 97 688 97 664 q 97 729 97 713 l 97 913 l 294 913 l 294 863 l 294 701 q 294 682 294 697 q 294 649 294 667 q 295 617 294 632 q 299 596 296 601 q 317 575 306 581 q 342 567 328 569 q 369 567 356 565 q 393 568 382 568 l 393 883 l 393 913 l 590 913 l 590 617 m 542 172 l 542 864 l 443 864 l 443 518 q 418 518 436 518 q 380 518 400 518 q 342 519 360 518 q 318 522 324 519 q 267 556 286 531 q 246 614 247 581 q 244 739 243 676 q 246 864 246 801 l 147 864 l 147 700 q 146 618 147 658 q 163 538 144 578 q 210 472 179 500 q 281 431 240 444 q 361 417 321 415 q 443 419 401 419 l 443 172 l 542 172 m 517 839 l 517 197 l 467 197 l 467 444 q 438 444 460 444 q 390 444 415 444 q 343 445 365 444 q 314 447 321 446 q 244 476 275 454 q 193 535 213 499 q 172 609 172 572 q 171 685 171 646 l 171 839 l 221 839 l 221 704 q 221 675 221 693 q 221 638 221 657 q 223 600 221 618 q 229 571 225 582 q 270 518 243 539 q 332 494 297 497 q 400 492 367 492 q 467 493 433 493 l 467 839 l 517 839 z "},"5":{"ha":660,"x_min":29,"x_max":636,"o":"m 596 592 l 526 592 q 596 515 568 561 q 626 443 615 482 q 636 367 636 404 q 624 283 636 325 q 588 206 613 242 l 569 164 q 533 103 557 133 q 315 0 446 0 q 210 20 261 0 q 119 76 158 40 q 53 170 76 117 q 29 283 29 224 l 29 863 l 63 936 l 63 949 l 636 949 l 636 671 l 631 671 l 596 592 m 454 604 q 383 623 418 619 q 315 626 347 626 l 315 696 l 611 696 l 611 922 l 89 922 l 89 401 l 343 401 q 368 395 357 401 q 383 378 379 389 q 376 343 392 361 q 351 331 365 331 q 326 340 338 331 q 315 365 315 349 l 315 381 l 89 381 l 89 365 q 171 175 89 253 q 255 123 207 142 q 353 104 303 104 q 463 128 411 104 q 553 200 514 153 q 592 270 578 232 q 610 348 607 308 q 603 426 613 388 q 574 501 594 465 q 523 562 551 538 q 454 604 494 586 m 606 240 l 607 243 q 606 242 607 242 q 606 240 606 242 m 596 910 l 596 713 l 368 713 l 350 713 l 300 713 l 300 614 q 376 612 339 614 q 449 593 413 610 q 561 494 521 563 q 590 424 582 461 q 596 350 599 388 q 579 277 593 313 q 540 211 565 242 q 458 144 504 167 q 363 120 411 122 q 267 135 314 118 q 184 185 221 153 q 125 263 147 217 q 103 368 103 310 l 300 368 q 309 339 300 351 q 332 321 318 326 q 361 319 346 315 q 388 335 376 322 q 401 363 400 349 q 394 390 401 378 q 374 409 388 401 q 343 417 360 417 l 103 417 l 103 910 l 596 910 m 547 763 l 547 861 l 153 861 l 153 467 l 306 467 q 345 467 326 467 q 381 463 364 467 q 412 447 397 458 q 438 413 426 435 q 444 334 460 369 q 397 281 429 299 q 327 270 365 264 q 264 318 289 276 l 158 318 q 226 213 176 250 q 333 171 275 175 q 447 195 392 167 q 531 289 503 224 q 542 409 556 347 q 483 514 529 471 q 428 550 456 539 q 371 565 400 561 q 312 567 342 568 q 251 565 282 565 l 251 763 l 547 763 m 522 836 l 522 788 l 226 788 l 226 540 l 333 540 q 387 536 361 540 q 438 517 413 532 q 508 438 486 489 q 518 332 529 386 q 463 237 506 271 q 370 197 421 203 q 269 214 319 190 q 193 293 219 238 l 251 293 q 324 246 282 253 q 403 256 367 239 q 460 310 439 274 q 469 396 482 347 q 424 465 458 440 q 346 490 390 490 l 176 490 l 176 836 l 522 836 z "},"6":{"ha":660,"x_min":28,"x_max":635,"o":"m 324 347 q 316 374 317 356 q 315 404 315 392 l 328 404 q 374 396 363 404 q 386 371 383 388 q 375 344 386 356 q 351 335 365 335 q 324 347 333 335 m 593 543 l 572 543 q 576 538 575 540 q 581 532 578 535 q 622 451 608 493 q 635 367 635 408 q 624 290 635 329 q 593 217 613 250 l 585 204 l 567 163 q 560 149 564 156 q 553 136 557 143 q 506 77 533 104 q 447 32 479 50 q 311 0 381 0 q 146 51 221 0 q 81 117 108 79 q 40 203 54 156 q 29 262 31 233 q 28 319 28 290 l 28 332 l 28 354 l 28 514 q 31 609 28 563 q 56 700 35 656 l 76 746 q 103 810 85 779 q 154 874 122 842 q 346 949 236 949 q 454 928 403 949 q 546 869 506 907 q 613 776 590 829 q 635 663 635 724 l 635 622 l 629 622 l 593 543 m 347 697 q 372 688 361 697 q 383 663 383 679 l 383 649 l 608 649 l 608 663 q 528 851 608 775 q 444 904 492 885 q 346 924 397 924 q 172 854 246 924 q 123 794 140 825 q 97 731 106 763 q 88 665 89 699 q 88 597 88 632 l 88 581 l 88 438 q 88 424 88 431 q 86 411 88 418 q 87 353 86 383 q 99 293 88 324 q 135 213 110 249 q 196 153 161 178 q 269 117 229 129 q 349 106 308 106 q 474 135 415 106 q 571 231 535 169 q 608 375 611 297 q 561 517 606 453 q 506 575 535 553 q 447 608 478 597 q 382 624 415 619 q 313 628 349 628 q 313 668 311 651 q 331 692 315 685 q 347 697 340 697 m 104 360 q 103 399 103 379 q 104 438 104 418 l 104 581 q 105 653 104 618 q 113 721 106 688 q 135 785 119 754 q 183 844 151 815 q 269 896 222 881 q 361 909 315 911 q 449 888 407 907 q 525 837 492 869 q 578 760 558 804 q 597 663 597 715 l 400 663 q 393 688 400 676 q 376 705 386 699 q 353 712 365 711 q 328 706 340 713 q 308 687 314 699 q 301 662 303 675 q 301 635 300 649 q 301 613 301 622 q 375 610 340 613 q 441 596 410 607 q 500 564 472 585 q 553 508 528 543 q 597 374 594 447 q 563 239 600 301 q 465 147 524 176 q 344 119 407 117 l 338 119 l 335 119 q 324 121 331 121 q 318 122 319 121 q 308 124 313 122 q 298 125 303 124 q 286 128 293 126 q 284 128 285 128 q 282 129 283 129 q 280 130 281 129 q 278 131 279 131 q 183 185 224 147 q 121 275 142 224 q 120 278 121 278 q 119 282 119 279 q 114 297 117 286 q 104 360 107 325 m 436 711 l 542 711 q 478 814 525 776 q 374 858 431 851 q 263 840 318 865 q 176 756 208 815 q 157 699 161 728 q 153 640 153 671 l 153 522 l 153 403 q 155 344 153 372 q 169 288 157 315 q 218 219 188 246 q 284 181 249 193 q 358 169 319 168 q 432 186 397 171 q 494 231 467 201 q 538 303 522 260 q 541 419 557 361 q 478 517 525 476 q 423 549 450 539 q 367 563 396 560 q 310 565 339 567 q 251 564 282 564 l 251 653 q 258 696 251 676 q 282 733 264 715 q 322 756 300 750 q 365 760 343 763 q 405 744 386 757 q 436 711 424 732 m 436 517 q 508 440 485 489 q 521 336 531 390 q 469 240 510 276 q 379 196 429 204 q 279 208 329 188 q 200 282 229 229 q 182 332 186 307 q 178 385 178 357 l 178 490 q 178 531 178 500 q 178 597 178 563 q 179 661 178 631 q 183 703 181 692 q 240 796 197 763 q 333 834 282 829 q 432 815 383 839 q 507 736 481 792 l 450 736 q 408 771 432 758 q 357 785 383 783 q 305 776 331 786 q 260 746 279 767 q 233 699 239 724 q 228 647 228 675 l 228 539 l 333 539 q 386 535 361 539 q 436 517 411 531 m 438 279 q 466 323 457 299 q 474 373 475 347 q 460 422 472 399 q 428 463 449 446 q 381 485 404 481 q 331 489 358 489 l 228 489 l 228 386 q 232 335 228 358 q 254 289 236 313 q 294 256 271 268 q 344 243 318 244 q 394 251 369 242 q 438 279 418 260 m 413 443 q 439 410 429 429 q 449 372 449 392 q 443 331 450 351 q 421 296 436 311 q 385 274 406 281 q 345 267 365 267 q 306 278 325 268 q 274 304 288 288 q 255 341 258 322 q 251 382 251 360 l 251 465 l 335 465 q 376 462 357 465 q 413 443 394 458 m 386 331 q 400 368 401 346 q 382 404 399 390 q 342 415 368 415 q 301 415 317 415 q 301 375 301 401 q 313 335 301 349 q 349 317 326 318 q 386 331 371 315 z "},"7":{"ha":660,"x_min":26,"x_max":635,"o":"m 61 949 l 635 949 l 635 706 l 468 79 l 464 79 l 429 0 l 151 0 l 307 592 l 26 592 l 26 863 l 61 938 l 61 949 m 608 708 l 608 922 l 86 922 l 86 697 l 372 697 l 217 104 l 450 104 l 608 708 m 594 907 l 594 710 l 440 118 l 236 118 l 390 710 l 100 710 l 100 907 l 594 907 l 594 907 m 544 717 l 544 858 l 150 858 l 150 760 l 454 760 l 300 167 l 401 167 l 544 717 l 544 717 m 519 833 l 519 719 l 382 192 l 332 192 l 486 783 l 175 783 l 175 833 l 519 833 l 519 833 z "},"8":{"ha":660,"x_min":22,"x_max":635,"o":"m 633 386 q 628 311 635 350 q 604 239 621 272 q 596 225 600 232 q 588 211 592 218 l 567 167 l 563 157 q 463 46 526 86 q 389 12 428 24 q 310 0 350 0 q 229 13 269 0 q 156 46 189 25 q 99 94 126 65 q 56 157 72 124 q 31 228 38 189 q 26 303 24 268 q 34 352 28 329 q 50 397 40 375 l 53 403 l 54 407 l 56 408 l 53 403 l 56 410 l 60 418 l 63 424 l 61 424 l 67 433 q 26 560 33 493 q 53 700 22 632 l 56 707 l 72 742 q 89 790 79 768 q 133 856 108 826 q 190 904 158 885 q 347 949 260 949 q 503 904 431 949 q 604 790 568 860 q 627 718 619 757 q 633 643 635 679 q 593 514 629 572 q 621 453 611 486 q 633 386 631 421 m 581 250 q 607 385 614 315 q 561 514 603 458 q 607 643 603 574 q 581 781 613 714 q 541 838 565 813 q 488 882 517 863 q 347 924 425 924 q 204 882 268 924 q 113 781 146 843 q 86 643 81 714 q 132 514 90 574 q 86 385 90 458 q 113 250 79 315 q 153 192 129 218 q 204 147 176 165 q 347 106 268 106 q 488 147 425 106 q 541 192 517 165 q 581 250 565 218 m 347 403 q 372 392 361 403 q 382 367 382 382 q 372 341 382 351 q 347 331 361 331 q 322 341 332 331 q 311 367 311 351 q 322 392 311 382 q 347 403 332 403 m 347 628 q 322 638 332 628 q 311 663 311 647 q 322 688 311 678 q 347 697 332 697 q 372 688 361 697 q 382 663 382 678 q 372 638 382 647 q 347 628 361 628 m 346 908 q 480 869 422 908 q 567 772 538 831 q 593 644 596 714 q 544 514 590 575 q 593 383 590 453 q 567 256 596 314 q 480 158 538 197 q 346 119 422 119 q 213 158 269 119 q 126 256 156 197 q 100 383 97 314 q 149 514 103 453 q 100 644 103 575 q 126 773 97 714 q 213 870 156 832 q 346 908 269 908 m 539 617 q 531 733 553 676 q 458 826 508 792 q 346 860 408 860 q 235 826 285 860 q 163 733 185 792 q 154 617 140 676 q 177 562 161 586 q 211 514 193 538 q 177 467 193 490 q 154 411 161 443 q 149 352 147 379 q 163 294 151 325 q 235 203 185 238 q 346 169 285 169 q 458 203 408 169 q 531 294 508 238 q 544 352 542 325 q 539 411 546 379 q 516 467 532 443 q 482 514 500 490 q 516 562 500 538 q 539 617 532 586 m 451 514 q 484 469 468 490 q 509 424 500 447 q 519 374 518 400 q 511 315 521 347 q 449 227 494 261 q 346 193 404 193 q 244 227 289 193 q 182 314 199 261 q 172 374 171 347 q 183 424 174 400 q 208 469 193 447 q 242 514 224 490 q 208 559 224 538 q 183 604 193 581 q 172 654 174 628 q 182 714 171 681 q 244 801 199 768 q 346 835 289 835 q 449 801 404 835 q 511 714 494 768 q 519 654 521 681 q 509 604 518 628 q 484 559 500 581 q 451 514 468 538 m 469 663 q 434 750 469 714 q 346 786 399 786 q 259 750 294 786 q 224 663 224 714 q 259 575 224 611 q 346 539 294 539 q 434 575 399 539 q 469 663 469 611 m 469 367 q 434 453 469 418 q 346 489 399 489 q 259 453 294 489 q 224 367 224 418 q 259 279 224 315 q 346 243 294 243 q 434 279 399 243 q 469 367 469 315 m 346 761 q 417 732 388 761 q 446 663 446 703 q 417 593 446 622 q 346 564 388 564 q 276 593 306 564 q 247 663 247 622 q 276 732 247 703 q 346 761 306 761 m 396 663 q 381 697 396 682 q 346 711 367 711 q 312 697 326 711 q 297 663 297 682 q 312 627 297 642 q 346 613 326 613 q 381 627 367 613 q 396 663 396 642 m 346 465 q 417 436 388 465 q 446 367 446 407 q 417 297 446 325 q 346 268 388 268 q 276 297 306 268 q 247 367 247 325 q 276 436 247 407 q 346 465 306 465 m 396 367 q 381 401 396 386 q 346 415 367 415 q 312 401 326 415 q 297 367 297 386 q 312 331 297 346 q 346 317 326 317 q 381 331 367 317 q 396 367 396 346 z "},"9":{"ha":660,"x_min":26,"x_max":635,"o":"m 374 685 q 381 658 381 676 q 382 628 382 640 l 369 628 q 324 636 332 628 q 311 660 311 646 q 321 686 310 675 q 346 697 332 697 q 374 685 363 697 m 621 743 q 633 678 632 708 q 633 615 635 647 l 633 432 q 626 318 633 374 q 585 210 619 263 l 564 163 q 538 117 553 139 q 500 75 524 96 q 310 0 418 0 q 205 21 257 0 q 114 78 153 42 q 49 172 72 118 q 26 283 26 225 l 26 319 l 60 396 l 60 406 l 83 406 l 76 417 q 39 495 51 453 q 26 581 26 538 q 51 697 26 640 l 56 708 l 69 736 q 100 811 81 778 q 149 870 119 843 q 210 915 178 897 q 276 940 240 931 q 344 949 311 949 q 433 935 390 949 q 513 897 476 922 q 621 743 594 839 m 607 615 q 607 675 608 646 q 597 736 606 704 q 497 875 569 825 q 426 911 465 899 q 344 924 386 924 q 222 892 278 924 q 166 852 190 876 q 122 797 142 828 q 85 653 82 731 q 133 513 89 576 q 188 453 158 475 q 248 420 217 432 q 313 405 279 408 q 382 401 346 401 l 382 400 q 381 360 383 376 q 363 336 378 343 q 346 331 357 331 q 323 340 335 331 q 311 367 311 350 l 311 381 l 85 381 l 85 367 q 106 262 85 311 q 167 176 126 213 q 250 124 203 142 q 347 106 297 106 q 441 122 396 106 q 522 174 486 139 q 572 234 554 203 q 597 297 589 265 q 606 363 604 329 q 607 432 607 397 l 607 447 l 607 592 l 607 615 m 353 910 l 358 910 l 361 910 q 374 908 369 910 l 378 908 q 383 908 381 908 q 388 907 385 907 q 397 905 393 906 q 407 903 401 904 q 410 901 408 903 l 413 901 l 414 901 q 417 900 415 900 q 419 899 418 900 q 514 844 472 882 q 575 754 556 807 q 582 733 581 740 q 590 701 588 717 q 593 669 592 685 l 593 593 l 593 449 q 592 376 593 411 q 585 309 592 342 q 561 246 578 276 q 513 186 544 215 q 426 134 472 150 q 335 120 381 118 q 247 142 289 122 q 171 193 204 161 q 118 269 138 225 q 99 368 99 314 l 296 368 q 320 326 296 340 q 369 324 344 311 q 388 342 382 331 q 396 367 394 354 q 397 393 397 381 q 396 417 396 406 q 322 419 357 417 q 256 433 288 422 q 197 465 225 444 q 144 521 169 485 q 99 655 101 582 q 135 792 96 728 q 231 883 172 854 q 353 910 290 913 m 543 390 l 543 508 l 543 626 q 541 685 543 657 q 526 743 539 714 q 447 835 499 806 q 338 861 394 864 q 231 825 281 858 q 158 728 181 792 q 155 611 139 669 q 218 513 171 553 q 272 479 244 489 q 328 467 300 469 q 385 465 356 464 q 444 467 414 467 l 444 376 q 439 333 444 353 q 414 296 433 314 q 375 273 397 279 q 331 269 353 267 q 291 285 310 272 q 260 318 272 297 l 154 318 q 219 215 171 253 q 323 172 267 178 q 433 190 379 165 q 519 275 488 215 q 539 331 535 303 q 543 390 543 358 m 518 539 q 518 497 518 528 q 518 433 518 467 q 517 367 518 399 q 514 326 517 336 q 456 233 499 267 q 363 195 414 200 q 265 214 313 190 q 190 293 217 238 l 247 293 q 288 258 264 269 q 339 244 313 246 q 391 253 365 243 q 436 283 417 263 q 463 331 457 307 q 469 383 469 354 l 469 490 l 363 490 q 310 494 335 490 q 261 514 285 499 q 189 590 213 542 q 176 693 165 639 q 227 790 186 753 q 318 835 268 826 q 418 822 368 843 q 497 747 468 801 q 515 697 511 722 q 518 644 518 672 l 518 539 m 469 540 l 469 644 q 465 695 469 672 q 442 742 461 718 q 401 774 425 763 q 353 788 378 786 q 303 780 328 789 q 258 751 278 771 q 230 707 239 732 q 222 657 221 682 q 235 608 224 632 q 268 568 247 585 q 315 544 292 549 q 365 540 338 540 l 469 540 m 444 647 l 444 565 l 361 565 q 322 568 340 565 q 283 586 303 571 q 258 619 267 600 q 247 658 249 638 q 253 698 246 678 q 276 733 261 718 q 351 763 308 765 q 422 725 394 760 q 441 688 438 707 q 444 647 444 669 m 396 614 q 396 655 396 629 q 385 694 396 681 q 348 713 369 713 q 311 699 326 714 q 297 661 296 683 q 315 625 297 639 q 355 614 329 614 q 396 614 381 614 z "},"\u0000":{"ha":0,"x_min":0,"x_max":0,"o":""},"\r":{"ha":410,"x_min":0,"x_max":0,"o":""}," ":{"ha":410,"x_min":0,"x_max":0,"o":""},"F":{"ha":660,"x_min":28,"x_max":633,"o":"m 633 671 l 629 671 l 621 653 l 633 653 l 633 375 l 629 375 l 593 296 l 339 296 l 339 79 l 333 79 l 297 0 l 28 0 l 28 863 l 61 938 l 61 949 l 633 949 l 633 671 m 608 697 l 608 924 l 88 924 l 88 106 l 313 106 l 313 401 l 608 401 l 608 628 l 313 628 l 313 697 l 608 697 m 299 121 l 250 121 l 101 121 l 101 910 l 250 910 l 299 910 l 594 910 l 594 713 l 299 713 l 299 614 l 594 614 l 594 417 l 299 417 l 299 121 m 150 861 l 150 169 l 250 169 l 250 465 l 546 465 l 546 565 l 250 565 l 250 763 l 546 763 l 546 861 l 299 861 l 250 861 l 150 861 m 521 540 l 521 490 l 225 490 l 225 194 l 175 194 l 175 836 l 521 836 l 521 786 l 225 786 l 225 540 l 521 540 z "},"P":{"ha":660,"x_min":28,"x_max":635,"o":"m 383 663 q 373 638 383 647 q 349 628 363 628 l 314 628 l 314 697 l 349 697 q 373 688 363 697 q 383 663 383 678 m 550 864 q 635 661 635 779 q 623 579 635 618 q 590 507 611 540 l 569 464 q 477 351 538 397 q 339 297 417 306 l 339 79 l 333 79 l 299 0 l 28 0 l 28 863 l 63 938 l 63 949 l 349 949 q 458 927 407 949 q 550 864 510 906 m 349 401 q 450 422 403 401 q 533 477 497 442 q 589 560 568 513 q 610 661 610 607 q 533 847 610 771 q 449 903 496 883 q 349 924 401 924 l 88 924 l 88 106 l 314 106 l 314 401 l 349 401 m 322 575 l 324 578 q 322 575 322 575 m 299 910 q 406 901 356 910 q 504 853 456 892 q 572 768 549 818 q 596 663 596 718 q 572 557 596 607 q 504 472 549 507 q 456 441 481 453 q 406 424 432 429 q 354 417 381 418 q 299 415 328 415 l 299 119 l 101 119 l 101 910 l 250 910 l 299 910 m 469 507 q 536 598 517 543 q 540 711 556 653 q 482 808 525 769 q 381 857 439 847 q 338 859 372 858 q 265 860 304 860 q 193 860 226 860 q 151 860 160 860 l 151 169 l 250 169 l 250 465 q 307 464 279 465 q 362 465 335 463 q 416 477 389 468 q 469 507 443 486 m 519 688 q 503 585 526 633 q 432 511 479 538 q 383 494 407 497 q 331 490 358 490 l 225 490 l 225 193 l 176 193 l 176 835 q 215 835 185 835 q 281 835 246 835 q 346 833 315 835 q 385 831 376 832 q 475 780 438 819 q 519 688 513 740 m 383 544 q 448 589 424 556 q 472 663 472 622 q 448 736 472 703 q 383 781 424 769 q 352 785 375 783 q 303 786 329 786 q 256 786 278 786 q 225 786 233 786 l 225 539 q 256 539 233 539 q 303 539 278 539 q 352 540 329 539 q 383 544 375 542 m 447 663 q 428 603 447 629 q 376 568 408 578 q 351 565 369 565 q 313 564 333 564 q 275 564 293 564 q 250 564 257 564 l 250 761 q 275 761 257 761 q 313 761 293 761 q 351 760 333 761 q 376 757 369 758 q 428 721 408 747 q 447 663 447 694 m 399 663 q 388 692 399 679 q 363 710 378 706 q 331 714 346 715 q 299 713 315 713 l 299 614 q 331 612 315 614 q 363 615 346 610 q 388 633 378 619 q 399 663 399 646 z "},"E":{"ha":660,"x_min":25,"x_max":633,"o":"m 633 672 l 626 672 l 618 651 l 633 651 l 633 376 l 626 376 l 618 356 l 633 356 l 633 79 l 626 79 l 592 0 l 25 0 l 25 863 l 60 936 l 60 949 l 633 949 l 633 672 m 607 697 l 607 922 l 85 922 l 85 106 l 607 106 l 607 331 l 311 331 l 311 401 l 607 401 l 607 626 l 311 626 l 311 697 l 607 697 m 592 317 l 592 119 l 296 119 l 246 119 l 97 119 l 97 908 l 246 908 l 296 908 l 592 908 l 592 711 l 296 711 l 296 613 l 592 613 l 592 415 l 296 415 l 296 317 l 592 317 l 592 317 m 542 168 l 542 267 l 246 267 l 246 465 l 542 465 l 542 564 l 246 564 l 246 761 l 542 761 l 542 860 l 296 860 l 246 860 l 147 860 l 147 168 l 246 168 l 296 168 l 542 168 l 542 168 m 518 243 l 518 193 l 296 193 l 246 193 l 172 193 l 172 835 l 246 835 l 296 835 l 518 835 l 518 785 l 221 785 l 221 539 l 518 539 l 518 489 l 221 489 l 221 243 l 518 243 l 518 243 z "},"O":{"ha":660,"x_min":24,"x_max":629,"o":"m 599 794 q 622 728 614 763 q 629 649 629 693 l 629 381 q 622 299 629 335 q 599 232 614 264 q 591 219 594 225 q 583 207 588 214 l 557 150 q 453 40 521 81 q 307 0 386 0 q 160 40 226 0 q 57 150 93 81 q 32 218 40 183 q 24 297 24 253 l 24 565 q 30 637 24 606 q 50 697 36 668 l 68 739 q 90 796 76 769 q 197 908 129 867 q 344 949 264 949 q 492 907 424 949 q 599 794 560 865 m 604 649 q 575 783 604 725 q 478 886 540 849 q 344 924 417 924 q 208 886 269 924 q 114 783 147 849 q 83 649 83 726 l 83 381 q 91 306 83 339 q 114 244 99 274 q 208 142 147 179 q 344 106 269 106 q 478 142 417 106 q 575 244 540 179 q 597 306 590 274 q 604 381 604 339 l 604 649 m 379 379 q 377 356 379 364 q 367 339 375 347 q 344 331 358 331 q 319 340 331 331 q 308 367 308 350 l 308 649 q 310 673 308 664 q 321 689 313 682 q 331 694 326 692 q 343 697 336 697 q 368 688 357 697 q 379 663 379 679 l 379 379 m 590 633 l 590 367 q 553 235 590 292 q 458 148 515 178 q 333 119 401 118 q 204 163 265 121 q 117 268 144 203 q 100 331 103 300 q 97 394 97 363 l 97 663 q 135 794 97 738 q 229 881 172 850 q 354 909 286 911 q 483 865 422 907 q 535 819 514 844 q 571 760 556 794 q 587 697 583 728 q 590 633 590 667 m 542 596 q 541 653 542 625 q 535 707 540 681 q 516 758 529 733 q 478 807 503 783 q 373 858 431 851 q 265 844 315 865 q 180 774 214 822 q 146 663 146 726 l 146 433 q 147 376 146 404 q 152 322 147 347 q 170 271 157 296 q 208 222 183 246 q 314 170 256 178 q 423 185 372 163 q 508 254 474 207 q 542 367 542 301 l 542 596 m 475 775 q 505 728 496 751 q 517 679 514 704 q 518 628 519 654 q 517 576 517 603 l 517 367 q 484 264 517 306 q 404 204 451 222 q 304 197 357 186 q 213 253 251 207 q 183 301 192 276 q 171 350 174 325 q 169 401 168 375 q 171 453 171 426 l 171 663 q 203 765 171 722 q 283 824 236 807 q 383 831 331 842 q 475 775 435 821 m 458 321 q 465 356 463 332 q 467 407 467 381 q 467 457 467 433 q 467 492 467 481 l 467 663 q 436 745 467 714 q 366 784 406 776 q 287 773 326 792 q 229 707 247 754 q 223 672 225 696 q 220 622 221 649 q 220 572 219 596 q 221 538 221 549 l 221 367 q 251 284 221 315 q 321 245 281 253 q 400 256 361 238 q 458 321 439 274 m 443 511 q 444 435 443 472 q 442 360 444 397 q 408 289 439 311 q 340 267 376 267 q 274 293 304 268 q 244 367 244 318 l 244 518 q 244 594 244 556 q 246 669 243 632 q 280 740 249 717 q 347 761 311 763 q 413 735 383 760 q 443 663 443 710 l 443 511 m 376 329 q 391 353 389 340 q 393 381 393 365 l 393 436 l 393 663 q 385 690 393 678 q 364 707 376 701 q 338 711 351 713 q 311 700 324 710 q 297 676 299 689 q 294 647 294 663 l 294 592 l 294 367 q 303 338 294 350 q 324 321 311 326 q 350 317 336 315 q 376 329 364 318 z "},"K":{"ha":660,"x_min":21,"x_max":651,"o":"m 436 514 q 489 408 461 464 q 544 296 517 353 q 599 184 572 239 q 651 79 626 129 l 643 79 l 608 0 l 306 0 l 296 17 l 289 0 l 21 0 l 21 861 l 54 936 l 54 947 l 331 947 l 331 928 q 336 938 333 932 q 340 947 339 943 l 651 947 l 436 514 m 407 514 l 610 922 l 357 922 l 304 815 l 304 922 l 79 922 l 79 104 l 304 104 l 304 211 l 357 104 l 610 104 l 407 514 m 589 908 l 393 514 l 589 119 l 369 119 l 293 272 l 293 119 l 96 119 l 96 317 l 96 908 l 244 908 l 293 908 l 293 757 l 369 908 l 589 908 m 339 514 l 510 860 l 400 860 l 244 546 l 244 860 l 146 860 l 146 168 l 244 168 l 244 482 l 400 168 l 510 168 l 339 514 m 471 835 l 311 514 l 471 193 l 415 193 l 256 514 l 415 835 l 471 835 m 219 567 l 219 193 l 169 193 l 169 835 l 219 835 l 219 588 l 219 567 z "},"S":{"ha":660,"x_min":26,"x_max":635,"o":"m 613 476 q 635 364 635 424 q 588 210 635 278 l 569 169 q 510 85 549 122 q 313 0 428 0 q 208 21 260 0 q 117 78 156 42 q 51 170 74 117 q 28 283 28 224 l 28 319 l 61 394 l 61 406 l 88 406 q 49 472 64 435 q 26 582 26 525 q 51 694 26 640 l 69 735 q 99 803 81 771 q 146 864 118 836 q 239 927 188 906 q 346 949 290 949 q 453 928 401 949 q 546 871 506 908 q 612 777 590 831 q 633 663 633 724 l 633 622 l 628 622 l 593 543 l 571 543 q 613 476 597 511 m 532 182 q 606 316 590 240 q 589 467 621 392 q 493 585 557 542 q 349 628 429 628 q 326 635 335 628 q 315 650 318 642 q 313 667 313 657 q 322 688 314 678 q 336 696 329 694 q 347 697 343 697 q 372 688 361 697 q 383 663 383 679 l 383 649 l 608 649 l 608 663 q 528 853 608 776 q 444 905 492 886 q 346 924 396 924 q 248 904 296 924 q 163 847 200 885 q 91 714 106 789 q 107 564 76 639 q 202 444 138 488 q 349 401 267 401 q 369 394 361 401 q 381 381 378 388 q 383 362 383 372 q 374 342 383 351 q 360 333 367 335 q 349 332 354 332 q 324 341 335 332 q 314 367 314 350 l 314 381 l 88 381 l 88 367 q 108 262 88 311 q 169 176 129 213 q 253 124 206 142 q 350 106 300 106 q 532 182 456 106 m 594 665 l 397 665 q 379 703 397 689 q 338 714 361 718 q 303 688 314 708 q 301 646 293 668 q 333 617 313 618 q 376 614 354 615 q 419 606 399 611 q 460 589 440 600 q 530 535 500 568 q 576 463 560 503 q 594 379 592 424 q 582 292 596 335 q 540 215 568 249 q 476 158 513 181 q 397 127 440 136 q 308 125 354 118 q 226 154 264 132 q 160 208 188 176 q 117 281 132 240 q 101 368 101 322 l 299 368 q 316 330 299 344 q 357 321 333 315 q 392 345 381 325 q 393 388 403 365 q 379 408 388 401 q 361 416 371 414 q 341 418 351 418 q 319 419 331 418 q 236 444 276 425 q 166 498 196 465 q 119 570 136 531 q 101 653 103 610 q 113 742 99 697 q 154 819 126 785 q 219 875 182 853 q 299 906 256 897 q 386 908 342 915 q 469 879 431 901 q 535 825 507 857 q 578 752 563 793 q 594 665 594 711 m 433 714 l 539 714 q 502 788 528 756 q 442 838 476 819 q 366 861 407 857 q 285 853 325 865 q 215 811 244 839 q 168 747 185 783 q 150 670 151 711 q 165 590 149 629 q 278 481 197 511 q 316 472 297 474 q 354 467 335 469 q 425 429 400 465 q 446 353 453 394 q 403 288 439 311 q 325 273 367 264 q 263 319 283 282 l 157 319 q 192 246 167 278 q 253 195 218 214 q 328 172 288 176 q 410 182 369 168 q 480 224 450 196 q 526 287 510 251 q 545 363 543 322 q 531 443 547 403 q 418 553 499 522 q 379 562 399 560 q 340 567 360 564 q 269 604 297 568 q 252 641 257 621 q 250 681 247 661 q 264 717 253 700 q 293 747 275 735 q 370 761 329 771 q 433 714 411 751 m 504 739 l 446 739 q 381 784 419 775 q 308 781 343 793 q 248 738 272 769 q 224 663 224 707 q 249 590 225 622 q 311 547 272 558 q 349 541 331 540 q 385 538 367 542 q 457 503 424 529 q 505 441 489 476 q 520 368 521 406 q 503 294 519 331 q 454 233 488 258 q 383 199 421 207 q 308 200 344 192 q 240 233 271 208 q 192 294 210 257 l 249 294 q 314 249 275 258 q 388 252 353 240 q 447 295 422 264 q 471 371 471 326 q 446 443 469 411 q 385 486 422 475 q 347 492 365 493 q 310 496 329 492 q 272 509 290 501 q 239 531 254 517 q 191 592 207 557 q 175 665 175 628 q 192 739 175 703 q 240 800 208 775 q 312 834 274 826 q 387 833 350 842 q 455 801 424 825 q 504 739 486 776 z "},"L":{"ha":592,"x_min":26,"x_max":567,"o":"m 338 357 l 567 357 l 567 79 l 561 79 l 526 0 l 26 0 l 26 863 l 61 938 l 61 950 l 338 950 l 338 357 m 542 106 l 542 332 l 313 332 l 313 924 l 86 924 l 86 106 l 542 106 m 528 318 l 528 121 l 297 121 l 100 121 l 100 318 l 100 911 l 297 911 l 297 318 l 528 318 l 528 318 m 478 171 l 478 269 l 249 269 l 249 861 l 150 861 l 150 318 l 150 219 l 150 171 l 478 171 l 478 171 m 453 244 l 453 194 l 175 194 l 175 836 l 224 836 l 224 244 l 453 244 l 453 244 z "},"!":{"ha":400,"x_min":43,"x_max":354,"o":"m 349 326 l 333 292 q 349 256 343 275 q 354 218 354 238 q 325 133 354 169 l 306 90 l 304 90 l 306 90 l 301 81 q 253 22 286 44 q 178 0 221 0 q 126 10 150 0 q 83 40 101 21 q 53 83 64 58 q 43 135 43 107 q 54 189 43 163 l 79 246 l 79 247 l 43 247 l 43 863 l 76 938 l 76 949 l 354 949 l 354 326 l 349 326 m 215 106 q 296 138 263 106 q 329 218 329 171 q 296 297 329 264 q 215 331 263 331 q 136 297 169 331 q 103 218 103 264 q 136 138 103 171 q 215 106 169 106 m 329 924 l 103 924 l 103 351 l 329 351 l 329 924 m 314 908 l 314 367 l 117 367 l 117 908 l 314 908 m 264 415 l 264 860 l 165 860 l 165 415 l 264 415 m 215 317 q 285 288 256 317 q 314 218 314 258 q 285 149 314 178 q 215 119 256 119 q 145 149 174 119 q 117 218 117 178 q 145 288 117 258 q 215 317 174 317 m 264 218 q 249 253 264 239 q 215 268 235 268 q 180 253 194 268 q 165 218 165 239 q 180 183 165 197 q 215 168 194 168 q 249 183 235 168 q 264 218 264 197 m 239 835 l 239 440 l 190 440 l 190 835 l 239 835 m 215 243 q 232 236 225 243 q 239 218 239 229 q 232 200 239 207 q 215 193 225 193 q 197 200 204 193 q 190 218 190 207 q 197 236 190 229 q 215 243 204 243 z "},"?":{"ha":660,"x_min":29,"x_max":642,"o":"m 506 901 q 608 788 574 857 q 635 638 642 719 q 590 508 628 565 l 574 469 l 574 472 l 569 463 q 488 357 540 399 l 488 326 l 482 326 l 467 290 q 488 218 488 258 q 458 132 488 167 l 436 81 q 387 22 421 44 q 313 0 353 0 q 215 39 254 0 q 176 135 176 78 q 189 189 176 164 l 213 246 l 213 247 l 176 247 l 176 417 q 190 490 176 456 l 214 542 l 29 542 l 29 579 q 53 696 29 640 l 72 738 q 150 868 94 814 q 242 928 190 907 q 350 949 294 949 q 506 901 432 949 m 350 104 q 429 137 396 104 q 463 218 463 169 q 429 297 463 264 q 350 331 396 331 q 269 297 301 331 q 236 218 236 264 q 269 137 236 169 q 350 104 301 104 m 610 639 q 585 776 617 713 q 492 879 554 839 q 350 922 425 922 q 252 903 300 922 q 168 850 204 885 q 109 764 129 813 q 89 661 89 715 l 89 646 l 314 646 l 314 661 q 325 688 314 679 q 350 697 336 697 q 365 694 356 697 q 381 675 374 690 q 383 652 386 664 q 371 633 381 640 q 356 626 364 628 q 339 624 349 625 q 325 623 332 624 q 310 618 318 622 q 236 500 236 593 l 236 351 l 463 351 l 463 426 q 564 513 525 457 q 610 639 603 568 m 604 539 l 606 542 q 604 539 604 539 m 488 761 q 520 678 515 724 q 507 592 525 633 q 451 522 486 543 q 372 482 415 500 l 372 438 l 324 438 q 322 476 324 457 q 324 514 321 494 q 332 532 325 528 q 350 536 339 536 q 369 538 361 536 q 388 543 378 540 q 448 588 425 556 q 471 660 471 619 q 446 735 471 704 q 386 776 421 765 q 313 778 351 788 q 249 733 275 768 l 192 733 q 251 802 213 778 q 331 831 289 826 q 416 817 374 835 q 488 761 458 800 m 483 865 q 572 763 544 825 q 594 638 599 701 q 551 519 589 575 q 446 433 514 463 l 446 363 l 249 363 l 249 497 q 263 561 249 533 q 313 604 276 589 q 345 609 328 610 q 378 619 363 608 q 396 647 392 631 q 393 679 400 664 q 369 704 385 697 q 338 708 353 711 q 310 692 322 704 q 299 660 299 679 l 101 660 q 138 790 101 733 q 230 876 174 846 q 353 906 286 907 q 483 865 421 906 m 538 607 q 539 710 553 658 q 488 799 525 761 q 396 851 447 839 q 296 849 344 863 q 209 800 247 836 q 157 708 171 764 l 263 708 q 322 756 285 747 q 390 749 358 764 q 440 700 422 733 q 440 624 457 667 q 421 592 432 604 q 390 571 410 579 q 356 561 375 564 q 338 559 346 560 q 321 553 329 558 q 299 522 300 539 q 299 486 299 506 l 299 413 l 397 413 l 397 465 q 485 517 450 489 q 538 607 521 546 m 347 314 q 417 285 389 314 q 446 215 446 256 q 417 146 446 175 q 347 117 389 117 q 278 146 307 117 q 249 215 249 175 q 278 285 249 256 q 347 314 307 314 m 397 215 q 383 250 397 236 q 347 264 368 264 q 313 250 328 264 q 299 215 299 236 q 313 180 299 194 q 347 165 328 165 q 383 180 368 165 q 397 215 397 194 m 347 240 q 365 233 358 240 q 372 215 372 226 q 365 197 372 204 q 347 190 358 190 q 330 197 336 190 q 324 215 324 204 q 330 233 324 226 q 347 240 336 240 z "},"C":{"ha":660,"x_min":24,"x_max":631,"o":"m 333 443 l 333 424 q 333 395 333 408 q 335 365 333 382 q 338 361 335 364 l 354 394 l 354 407 l 631 407 l 631 365 q 583 208 631 279 l 565 169 q 522 101 549 132 q 463 47 496 69 q 390 13 429 25 q 307 0 350 0 q 265 3 286 0 q 224 14 243 7 q 110 80 158 33 q 39 190 63 126 q 26 252 28 222 q 24 315 24 282 l 24 547 q 26 611 24 582 q 39 672 28 640 l 46 692 l 67 738 q 69 746 68 742 q 72 757 71 750 q 147 866 94 818 q 260 936 199 914 q 344 949 299 949 q 455 926 403 949 q 546 865 507 904 q 608 774 585 826 q 631 663 631 722 l 631 622 l 625 622 l 590 543 l 335 543 l 335 515 q 334 508 335 511 q 333 501 333 504 l 333 464 l 333 443 m 308 565 q 307 615 307 589 q 310 665 307 640 q 321 690 311 681 q 346 699 331 699 q 369 688 360 697 q 379 663 379 678 l 379 649 l 606 649 l 606 663 q 585 764 606 717 q 528 847 564 811 q 446 903 493 882 q 344 924 399 924 q 306 921 325 924 q 268 911 286 918 q 163 850 207 893 q 97 749 118 807 q 85 691 88 719 q 83 631 83 663 l 83 399 q 85 338 83 367 q 97 281 88 310 q 163 178 118 222 q 268 118 207 135 q 344 104 307 104 q 446 125 399 104 q 528 181 493 146 q 585 264 564 217 q 606 365 606 311 l 606 381 l 379 381 l 379 365 q 369 342 379 351 q 346 331 360 332 q 321 340 331 331 q 310 364 311 349 q 307 414 307 389 q 308 464 307 439 q 309 489 308 476 q 310 515 310 501 q 309 540 310 528 q 308 565 308 551 m 592 663 l 394 663 q 381 697 394 683 q 347 713 367 711 q 312 700 326 714 q 296 667 297 686 q 294 591 293 629 q 296 515 296 553 q 294 440 296 478 q 296 364 293 401 q 313 327 297 339 q 347 316 329 315 q 380 329 365 317 q 394 367 394 342 l 589 367 l 592 367 q 564 253 592 304 q 491 168 536 201 q 389 124 446 135 q 272 132 332 113 q 174 190 215 149 q 113 286 132 231 q 100 342 101 314 q 99 399 99 369 l 99 515 l 99 632 q 100 688 99 660 q 113 744 101 717 q 174 840 132 800 q 272 899 215 881 q 389 906 332 917 q 491 861 446 894 q 564 776 536 828 q 592 663 592 725 m 431 713 l 536 713 q 494 794 524 760 q 424 845 464 828 q 338 861 383 863 q 250 836 292 860 q 183 776 210 814 q 150 694 157 739 q 148 660 149 686 q 147 604 147 633 q 147 549 147 575 q 147 515 147 524 q 147 481 147 507 q 147 425 147 454 q 148 370 147 396 q 150 336 149 344 q 183 253 157 290 q 250 194 210 217 q 338 169 292 171 q 424 185 383 168 q 494 237 464 203 q 536 318 524 271 l 431 318 q 394 281 417 293 q 347 268 371 268 q 299 280 322 268 q 261 315 276 292 q 246 363 246 339 q 246 414 246 388 l 246 515 l 246 617 q 246 667 246 643 q 261 715 246 692 q 299 751 276 739 q 347 762 322 763 q 394 749 371 761 q 431 713 417 736 m 501 738 l 443 738 q 399 774 425 763 q 345 786 372 786 q 292 774 318 786 q 247 738 265 763 q 225 685 228 711 q 222 629 222 658 l 222 515 l 222 401 q 225 346 222 372 q 247 293 228 319 q 292 256 265 268 q 345 244 318 244 q 399 256 372 244 q 443 293 425 268 l 501 293 q 453 232 483 256 q 386 199 422 208 q 312 197 350 190 q 240 229 274 204 q 191 288 208 253 q 172 361 174 322 q 172 438 171 400 q 172 515 172 476 q 172 592 172 554 q 172 668 171 631 q 191 742 174 708 q 240 800 208 776 q 312 832 274 825 q 386 831 350 839 q 453 799 422 822 q 501 738 483 775 z "},"U":{"ha":660,"x_min":26,"x_max":633,"o":"m 633 947 l 633 379 q 625 299 633 335 q 600 232 617 264 q 592 217 596 224 q 585 203 589 210 l 565 163 l 560 150 q 456 40 524 79 q 310 0 389 0 q 163 40 231 0 q 58 150 94 79 q 33 217 40 182 q 26 297 26 253 l 26 861 l 61 936 l 61 947 l 338 947 l 338 893 l 356 936 l 356 947 l 633 947 m 607 921 l 382 921 l 382 381 q 372 338 382 347 q 346 329 361 329 q 322 338 333 329 q 311 381 311 347 l 311 921 l 86 921 l 86 379 q 93 306 86 339 q 115 243 100 274 q 212 141 150 178 q 346 104 274 104 q 483 141 421 104 q 578 243 544 178 q 600 306 593 274 q 607 379 607 339 l 607 921 m 592 443 q 592 385 592 414 q 588 330 592 357 q 574 275 583 303 q 544 221 564 247 q 458 146 510 172 q 346 119 406 119 q 233 146 286 119 q 146 221 181 172 q 117 274 126 247 q 103 329 107 301 q 99 385 99 357 q 99 443 99 414 l 99 908 l 296 908 l 296 663 l 296 613 l 296 475 l 296 382 q 305 337 296 357 q 346 317 314 317 q 385 337 376 317 q 394 382 394 357 l 394 475 l 394 632 l 394 663 l 394 908 l 592 908 l 592 443 m 514 263 q 543 359 543 311 q 543 457 543 407 l 543 860 l 444 860 l 444 663 l 444 632 l 444 436 q 444 411 444 426 q 444 381 444 396 q 441 350 443 365 q 435 325 439 335 q 399 283 424 299 q 346 267 374 267 q 292 283 317 267 q 256 325 268 299 q 249 350 251 335 q 247 381 247 365 q 247 412 246 397 q 247 436 247 426 l 247 613 l 247 663 l 247 860 l 147 860 l 147 457 q 147 408 147 432 q 148 359 146 383 q 156 311 150 335 q 178 263 163 288 q 249 193 206 218 q 346 168 293 168 q 442 193 397 168 q 514 263 486 218 m 518 465 q 519 422 518 446 q 518 374 519 399 q 512 326 517 350 q 497 283 507 303 q 433 217 474 242 q 346 193 393 193 q 257 217 297 193 q 193 283 217 242 q 172 374 172 324 q 172 465 172 425 l 172 835 l 222 835 l 222 663 l 222 613 l 222 417 q 222 357 222 386 q 242 299 222 328 q 287 258 260 272 q 346 243 314 243 q 405 258 378 243 q 449 299 432 272 q 468 357 468 328 q 468 417 468 386 l 468 632 l 468 663 l 468 835 l 518 835 l 518 465 z "},"A":{"ha":660,"x_min":25,"x_max":632,"o":"m 311 642 q 314 676 308 663 q 326 693 319 689 q 347 697 333 697 q 367 693 360 697 q 379 676 374 689 q 382 642 385 663 l 382 626 l 382 528 l 311 528 l 311 626 l 311 642 m 585 819 q 626 712 619 764 q 632 611 632 660 l 632 79 l 626 79 l 592 0 l 322 0 l 322 60 l 296 0 l 26 0 l 26 446 q 26 483 26 464 q 25 521 25 503 q 26 588 25 558 q 31 629 28 618 l 31 631 q 51 696 38 665 l 56 707 l 57 708 l 56 708 l 74 747 q 118 832 89 792 q 183 897 147 872 q 346 947 256 947 q 482 915 419 947 q 585 819 544 882 m 607 611 q 601 708 607 658 q 564 806 596 757 q 470 892 528 861 q 346 922 413 922 q 199 876 265 922 q 128 804 156 849 q 89 708 100 760 q 85 637 86 689 q 86 528 85 585 l 86 510 l 86 106 l 311 106 l 311 303 l 382 303 l 382 106 l 607 106 l 607 611 m 593 414 l 593 118 l 396 118 l 396 315 l 297 315 l 297 118 l 100 118 l 100 510 q 100 549 100 521 q 100 608 100 576 q 101 667 100 639 q 104 706 101 694 q 140 796 113 754 q 207 865 167 838 q 299 903 250 894 q 394 903 347 913 q 482 867 440 894 q 553 797 524 840 q 588 706 582 753 q 593 610 593 660 l 593 538 l 593 414 m 544 569 q 545 619 544 594 q 544 669 546 644 q 535 717 542 693 q 514 765 529 740 q 443 834 488 810 q 347 858 399 858 q 250 834 294 858 q 179 765 206 810 q 158 717 164 740 q 149 669 151 693 q 148 619 147 644 q 149 569 149 594 l 149 168 l 247 168 l 247 365 l 446 365 l 446 168 l 544 168 l 544 569 m 499 744 q 519 653 519 704 q 519 563 519 603 l 519 193 l 469 193 l 469 390 l 224 390 l 224 193 l 174 193 l 174 563 q 174 653 174 603 q 194 744 174 704 q 258 810 218 786 q 347 833 299 833 q 435 810 394 833 q 499 744 475 786 m 469 439 l 469 647 q 438 744 469 704 q 347 785 407 785 q 255 744 286 785 q 224 647 224 704 l 224 439 l 469 439 m 446 640 l 446 464 l 247 464 l 247 640 q 251 684 247 664 q 269 724 254 704 q 303 751 285 743 q 347 760 321 760 q 390 751 372 760 q 424 724 408 743 q 442 684 439 704 q 446 640 446 664 m 396 626 q 397 653 396 640 q 392 682 399 667 q 347 711 378 711 q 301 682 315 711 q 296 653 294 667 q 297 626 297 640 l 297 513 l 396 513 l 396 626 z "},"Z":{"ha":660,"x_min":17,"x_max":647,"o":"m 636 682 l 607 615 l 425 356 l 647 356 l 647 79 l 642 79 l 607 0 l 17 0 l 17 269 l 51 346 l 51 356 l 69 356 l 179 511 l 235 593 l 17 593 l 17 863 l 51 939 l 51 950 l 647 950 l 647 697 l 636 682 m 622 331 l 358 331 l 622 707 l 622 924 l 76 924 l 76 697 l 340 697 l 83 331 l 76 331 l 76 106 l 622 106 l 622 331 m 606 319 l 606 122 l 89 122 l 89 319 l 89 319 l 365 714 l 89 714 l 89 911 l 606 911 l 606 714 l 329 319 l 606 319 l 606 319 m 556 171 l 556 269 l 235 269 l 556 729 l 556 863 l 138 863 l 138 764 l 460 764 l 138 303 l 138 171 l 556 171 l 556 171 m 532 246 l 532 196 l 163 196 l 163 296 l 507 789 l 163 789 l 163 838 l 532 838 l 532 738 l 188 246 l 532 246 l 532 246 z "},"X":{"ha":701,"x_min":11,"x_max":689,"o":"m 614 268 l 689 79 l 681 79 l 646 0 l 356 0 l 331 63 l 303 0 l 11 0 l 43 79 l 183 431 q 142 537 164 482 q 97 647 119 592 q 53 758 75 703 q 11 863 31 813 l 46 940 l 43 949 l 342 949 l 365 890 l 389 949 l 689 949 l 514 514 l 614 268 m 651 104 l 488 514 l 651 924 l 407 924 l 367 818 l 325 924 l 81 924 l 244 514 l 81 104 l 325 104 l 367 210 l 407 104 l 651 104 m 631 911 l 472 517 l 631 121 l 418 121 l 367 250 l 315 121 l 103 121 l 260 517 l 103 911 l 315 911 l 367 782 l 418 911 l 631 911 m 419 517 l 558 861 l 451 861 l 367 649 l 282 861 l 175 861 l 314 517 l 175 171 l 282 171 l 367 383 l 451 171 l 558 171 l 419 517 m 521 838 l 393 517 l 521 196 l 468 196 l 367 450 l 265 196 l 211 196 l 340 517 l 211 838 l 265 838 l 367 583 l 468 838 l 521 838 z "},"V":{"ha":660,"x_min":21,"x_max":640,"o":"m 358 949 l 640 949 l 504 79 l 497 79 l 463 0 l 156 0 l 21 863 l 56 940 l 56 949 l 335 949 l 342 903 l 356 932 l 358 949 m 482 106 l 611 924 l 381 924 l 347 703 l 313 924 l 83 924 l 213 106 l 482 106 m 593 911 l 468 122 l 224 122 l 100 911 l 300 911 l 346 614 l 393 911 l 593 911 l 593 911 m 426 171 l 535 863 l 435 863 l 346 297 l 257 863 l 157 863 l 267 171 l 426 171 l 426 171 m 507 838 l 406 196 l 356 196 l 338 196 l 288 196 l 186 838 l 236 838 l 328 258 l 365 258 l 457 838 l 507 838 l 507 838 z "},"J":{"ha":660,"x_min":24,"x_max":631,"o":"m 631 949 l 631 399 q 628 335 631 365 q 615 272 626 304 q 600 238 608 254 q 581 207 592 222 l 571 182 l 565 172 q 495 74 542 117 q 392 13 449 32 q 306 0 347 0 q 197 22 247 0 q 107 83 146 44 q 46 173 68 121 q 24 283 24 225 l 24 319 l 58 396 l 58 406 l 319 406 l 319 863 l 353 938 l 353 949 l 631 949 m 604 924 l 378 924 l 378 665 l 378 514 q 378 490 378 503 q 379 464 379 476 q 381 415 381 440 q 378 364 381 389 q 367 340 378 350 q 342 332 357 331 q 318 342 328 332 q 308 367 308 351 l 308 381 l 83 381 l 83 367 q 103 265 83 313 q 159 181 124 217 q 242 126 194 146 q 343 106 289 106 q 382 108 363 106 q 421 117 401 110 q 525 178 481 136 q 590 281 569 221 q 602 338 600 308 q 604 399 604 367 l 604 924 m 571 182 l 565 172 q 567 177 567 175 q 571 182 568 179 m 603 254 l 603 251 l 604 260 q 603 258 604 258 q 603 254 603 257 m 592 581 l 592 417 q 588 335 592 374 q 565 256 585 296 q 490 165 536 197 q 392 124 443 133 q 288 128 340 115 q 193 172 235 140 q 125 253 151 204 q 99 368 99 303 l 101 368 l 296 368 q 313 329 296 344 q 354 319 331 314 q 389 346 379 324 q 394 366 394 357 q 394 386 394 375 l 394 561 l 394 910 l 592 910 l 592 581 m 539 329 q 541 378 540 339 q 542 462 542 417 q 542 546 542 507 q 542 594 542 585 l 542 861 l 443 861 l 443 485 l 443 390 q 440 345 443 367 q 419 303 438 324 q 381 275 403 283 q 335 269 358 267 q 292 283 313 271 q 260 318 272 296 l 154 318 q 197 234 167 267 q 267 185 228 201 q 351 171 307 169 q 433 190 394 172 q 500 243 471 208 q 539 329 529 278 m 518 836 l 518 369 q 499 288 518 322 q 451 230 481 253 q 383 199 421 207 q 309 197 346 190 q 240 228 272 204 q 189 293 208 251 l 246 293 q 283 260 261 272 q 328 245 304 249 q 375 248 351 242 q 419 269 399 254 q 467 351 461 299 q 469 399 471 375 q 468 447 468 424 l 468 836 l 518 836 z "},"W":{"ha":961,"x_min":28,"x_max":933,"o":"m 932 639 q 933 594 932 615 q 933 549 933 572 q 933 502 933 525 q 932 457 932 479 l 932 365 q 920 286 932 325 q 888 213 908 247 l 867 167 q 804 79 843 117 q 713 21 764 42 q 608 0 663 0 q 461 43 526 0 q 313 0 393 0 q 208 21 258 0 q 117 79 157 42 q 54 172 76 118 q 29 283 32 226 q 28 370 29 324 q 28 465 28 417 q 28 559 28 513 q 28 646 28 606 l 28 736 q 28 782 28 760 q 29 826 29 804 l 29 863 l 64 939 l 64 949 l 340 949 l 340 894 l 360 939 l 360 949 l 636 949 l 636 894 l 656 939 l 656 949 l 932 949 l 932 639 m 906 365 q 906 729 908 549 l 906 910 l 906 924 l 681 924 l 681 383 q 670 342 681 350 q 646 333 660 333 q 621 342 632 333 q 610 383 610 350 l 610 924 l 385 924 l 385 383 q 374 342 385 350 q 349 333 364 333 q 325 342 336 333 q 314 383 314 350 l 314 924 l 89 924 l 89 910 q 88 819 89 864 q 88 729 88 774 q 88 548 88 639 q 89 365 88 457 q 110 263 89 311 q 169 178 131 214 q 253 124 206 143 q 350 106 300 106 q 499 151 429 106 q 568 117 531 129 q 644 106 606 106 q 742 124 694 106 q 825 178 789 143 q 885 263 864 214 q 906 365 906 311 m 399 385 l 399 517 l 399 625 l 399 635 l 399 665 l 399 913 l 596 913 l 596 665 l 596 615 l 596 517 l 596 385 q 606 340 596 360 q 646 319 615 319 q 685 340 676 319 q 694 385 694 360 l 694 478 l 694 635 l 694 665 l 694 913 l 893 913 l 893 367 q 853 235 893 292 q 756 149 814 178 q 628 123 697 119 q 497 172 558 126 q 367 123 436 126 q 240 149 299 119 q 142 235 182 178 q 103 367 103 292 q 102 640 101 504 q 103 913 103 775 l 300 913 l 300 665 l 300 615 l 300 478 l 300 385 q 310 340 300 360 q 350 319 319 319 q 390 340 381 319 q 399 385 399 360 m 843 379 l 843 863 l 744 863 l 744 665 l 744 635 l 744 440 q 744 415 744 431 q 744 384 744 400 q 742 353 744 368 q 736 328 740 338 q 699 286 724 301 q 646 271 675 271 q 592 286 617 271 q 556 328 568 301 q 549 353 551 338 q 547 384 547 368 q 547 415 547 400 q 547 440 547 431 l 547 615 l 547 665 l 547 863 l 449 863 l 449 665 l 449 635 l 449 440 q 449 415 449 431 q 448 384 449 400 q 445 353 447 368 q 439 328 443 338 q 403 286 428 301 q 350 271 379 271 q 297 286 321 271 q 260 328 272 301 q 253 353 256 338 q 251 384 251 368 q 251 415 250 400 q 251 440 251 431 l 251 615 l 251 665 l 251 863 l 153 863 l 153 379 q 183 264 153 315 q 274 186 213 213 q 333 172 304 175 q 393 176 361 169 q 449 199 425 183 q 497 233 474 214 q 547 199 522 214 q 603 176 571 183 q 663 172 635 169 q 722 186 692 175 q 813 264 783 213 q 843 379 843 315 m 818 838 l 818 385 q 792 276 818 324 q 704 207 765 229 q 644 195 671 194 q 592 205 617 196 q 545 230 568 214 q 497 264 522 246 q 451 230 474 246 q 403 205 428 214 q 351 195 379 196 q 290 207 324 194 q 203 276 231 229 q 176 385 176 324 l 176 838 l 226 838 l 226 665 l 226 615 l 226 419 q 226 360 226 389 q 246 301 226 331 q 291 260 264 275 q 350 246 318 246 q 409 260 382 246 q 453 301 436 275 q 473 360 472 331 q 474 421 474 389 l 474 635 l 474 665 l 474 838 l 522 838 l 522 665 l 522 615 l 522 419 q 523 360 522 389 q 543 301 524 331 q 587 260 560 275 q 646 246 614 246 q 705 260 678 246 q 749 301 732 275 q 769 360 768 331 q 769 421 769 389 l 769 635 l 769 665 l 769 838 l 818 838 z "},".":{"ha":364,"x_min":24,"x_max":335,"o":"m 196 357 q 250 346 225 357 q 294 316 275 335 q 324 272 313 297 q 335 218 335 246 q 306 133 335 169 l 286 90 l 285 90 l 286 90 l 282 81 q 233 22 267 44 q 158 0 200 0 q 106 10 131 0 q 63 40 82 21 q 34 83 44 58 q 24 135 24 107 q 35 189 24 163 l 60 243 q 106 324 68 292 q 196 357 144 357 m 196 104 q 276 138 243 104 q 308 218 308 171 q 276 297 308 264 q 196 331 243 331 q 115 297 149 331 q 82 218 82 264 q 115 138 82 171 q 196 104 149 104 m 197 318 q 267 289 238 318 q 296 219 296 260 q 267 149 296 178 q 197 121 238 121 q 128 149 157 121 q 99 219 99 178 q 128 289 99 260 q 197 318 157 318 m 246 219 q 232 253 246 239 q 197 268 218 268 q 162 253 176 268 q 147 219 147 239 q 162 184 147 199 q 197 169 176 169 q 232 184 218 169 q 246 219 246 199 m 197 244 q 215 238 208 244 q 222 219 222 231 q 215 201 222 208 q 197 194 208 194 q 179 201 186 194 q 172 219 172 208 q 179 238 172 231 q 197 244 186 244 z "},",":{"ha":364,"x_min":19,"x_max":339,"o":"m 332 236 q 333 206 339 221 q 286 56 329 125 l 271 26 l 272 26 l 268 17 q 164 -117 235 -57 q 147 -126 157 -122 q 126 -131 138 -131 q 85 -114 101 -131 q 65 -74 68 -97 q 63 -49 64 -61 q 60 -28 63 -36 q 55 -14 57 -21 q 47 1 53 -7 l 47 6 q 44 10 46 8 q 40 19 42 13 q 26 75 32 44 q 22 138 19 106 q 26 165 24 153 q 33 190 28 178 l 61 251 q 109 326 72 296 q 194 356 146 356 q 249 346 226 356 q 293 314 271 336 q 324 268 314 293 l 332 243 l 332 236 m 308 211 q 308 225 310 217 l 308 228 q 308 233 308 231 q 307 238 307 235 l 300 260 q 289 280 294 271 q 275 296 283 289 q 238 322 257 314 q 194 331 219 331 q 116 298 149 331 q 82 218 83 265 q 85 160 79 188 q 99 108 92 133 l 107 89 q 118 61 114 78 q 122 35 121 49 q 125 11 124 22 q 137 -15 126 -4 q 163 -25 147 -25 q 188 -17 176 -25 q 308 211 307 83 m 294 224 q 296 220 294 222 q 294 218 297 218 q 263 93 294 147 q 179 -4 232 39 q 154 -8 168 -14 q 139 14 140 -1 q 136 40 138 28 q 132 65 135 53 q 124 91 129 79 q 114 115 118 103 q 99 167 104 142 q 97 219 94 192 q 126 289 97 260 q 196 318 156 318 q 265 289 236 318 q 288 257 279 275 q 293 238 290 249 q 294 233 293 235 q 294 228 294 231 l 294 224 m 183 67 q 231 135 215 100 q 246 218 246 171 l 246 219 q 231 255 246 240 q 194 268 215 269 q 159 253 172 268 q 146 217 146 238 l 146 214 l 146 197 q 147 191 146 194 q 147 185 147 188 q 154 151 149 168 q 163 124 158 138 q 174 97 168 111 q 179 82 176 93 q 183 67 181 78 m 221 218 q 192 118 221 165 q 182 144 186 131 q 175 169 178 157 q 173 182 174 176 q 171 193 172 188 q 170 203 171 199 q 171 211 169 207 l 171 215 q 175 235 171 228 q 194 243 179 242 q 213 238 206 244 q 221 219 221 231 l 221 218 z "},"T":{"ha":610,"x_min":29,"x_max":576,"o":"m 63 950 l 576 950 l 576 672 l 571 672 l 535 593 l 457 593 l 457 81 l 453 81 l 417 0 l 146 0 l 146 593 l 29 593 l 29 863 l 63 939 l 63 950 m 550 697 l 550 924 l 89 924 l 89 697 l 206 697 l 206 106 l 432 106 l 432 697 l 550 697 m 535 913 l 535 715 l 417 715 l 417 124 l 219 124 l 219 715 l 103 715 l 103 913 l 535 913 l 535 913 m 486 765 l 486 864 l 151 864 l 151 765 l 268 765 l 268 172 l 367 172 l 367 765 l 486 765 l 486 765 m 461 839 l 461 789 l 343 789 l 343 197 l 293 197 l 293 789 l 175 789 l 175 839 l 461 839 l 461 839 z "},"N":{"ha":660,"x_min":26,"x_max":635,"o":"m 579 831 q 628 715 621 769 q 633 603 635 661 l 633 79 l 629 79 l 593 0 l 322 0 l 322 57 l 297 0 l 28 0 l 28 501 q 28 508 28 504 q 26 515 28 511 q 30 607 26 563 q 53 696 33 651 l 74 740 q 117 831 86 786 q 217 917 157 886 q 347 949 278 949 q 478 917 417 949 q 579 831 539 886 m 608 603 q 603 710 610 658 q 560 815 597 763 q 466 894 522 865 q 347 924 410 924 q 228 894 285 924 q 136 815 172 865 q 92 710 99 763 q 86 603 86 658 q 88 583 88 597 l 88 106 l 313 106 l 313 646 q 323 689 313 681 q 347 697 333 697 q 372 689 361 697 q 382 646 382 681 l 382 106 l 608 106 l 608 583 l 608 603 m 546 807 q 575 753 565 781 q 589 699 585 726 q 593 642 593 671 q 593 585 593 614 l 593 119 l 396 119 l 396 367 l 396 417 l 396 553 l 396 646 q 387 692 396 672 q 346 711 378 711 q 306 692 315 711 q 297 647 297 672 l 297 553 l 297 396 l 297 367 l 297 119 l 100 119 l 100 585 q 100 642 100 614 q 103 699 100 671 q 117 753 107 726 q 146 807 126 781 q 234 883 182 856 q 346 910 286 910 q 458 883 406 910 q 546 807 511 856 m 543 571 q 544 620 543 596 q 544 669 546 644 q 535 717 542 693 q 514 767 529 742 q 442 835 486 811 q 346 860 399 860 q 250 835 294 860 q 178 767 206 811 q 149 669 149 718 q 149 571 149 621 l 149 169 l 247 169 l 247 367 l 247 396 l 247 592 q 247 617 247 601 q 248 647 247 632 q 251 678 249 663 q 257 703 253 693 q 292 746 268 731 q 346 761 317 761 q 399 746 375 761 q 436 703 424 731 q 442 678 440 693 q 445 647 444 663 q 445 617 446 632 q 444 592 444 601 l 444 417 l 444 367 l 444 169 l 543 169 l 543 571 m 497 744 q 513 702 508 725 q 519 655 518 679 q 520 607 521 631 q 519 564 519 583 l 519 193 l 469 193 l 469 367 l 469 417 l 469 611 q 469 672 469 643 q 450 731 469 701 q 405 772 432 757 q 346 786 378 786 q 287 772 314 786 q 243 731 260 757 q 223 672 224 701 q 222 611 222 643 l 222 396 l 222 367 l 222 193 l 174 193 l 174 564 q 174 655 174 604 q 194 746 174 706 q 258 811 218 788 q 346 835 299 835 q 435 811 394 835 q 497 744 475 788 z "},"M":{"ha":969,"x_min":32,"x_max":936,"o":"m 847 869 q 913 775 890 828 q 936 663 936 722 l 936 79 l 932 79 l 896 0 l 625 0 l 625 57 l 600 0 l 329 0 l 329 57 l 304 0 l 33 0 l 33 217 q 32 306 32 256 q 32 397 32 357 q 32 488 32 442 q 33 579 32 535 q 61 697 35 639 l 78 733 q 108 807 89 772 q 156 869 128 842 q 248 928 196 908 q 356 949 300 949 q 431 938 396 949 q 501 907 467 928 q 573 938 538 928 q 649 949 608 949 q 756 928 704 949 q 847 869 807 908 m 911 663 q 889 765 910 717 q 829 850 868 814 q 746 904 793 886 q 649 922 699 922 q 501 876 571 922 q 356 922 432 922 q 258 904 306 922 q 174 850 210 886 q 114 765 135 814 q 93 663 93 717 q 93 299 90 479 l 93 118 l 93 104 l 319 104 l 319 644 q 329 688 319 679 q 354 696 339 696 q 378 688 367 696 q 389 644 389 679 l 389 104 l 615 104 l 615 644 q 626 688 615 679 q 650 696 636 696 q 674 688 664 696 q 685 644 685 679 l 685 104 l 911 104 l 911 118 l 911 300 l 911 663 m 404 643 q 394 688 404 668 q 354 708 385 708 q 315 688 324 708 q 306 643 306 668 l 306 550 l 306 393 l 306 363 l 306 117 l 107 117 q 106 388 107 253 q 107 661 106 524 q 147 793 107 736 q 244 879 186 850 q 372 906 303 908 q 503 857 442 903 q 632 906 563 903 q 760 879 701 908 q 858 793 818 850 q 897 661 897 736 q 898 388 899 524 q 897 117 897 253 l 700 117 l 700 363 l 700 413 l 700 550 l 700 643 q 691 688 700 668 q 650 708 682 708 q 610 688 619 708 q 601 643 601 668 l 601 511 l 601 404 l 601 393 l 601 363 l 601 117 l 404 117 l 404 363 l 404 413 l 404 511 l 404 643 m 847 165 l 847 649 q 817 764 847 713 q 726 842 788 815 q 607 851 669 865 q 551 829 575 844 q 503 794 526 814 q 453 829 478 814 q 397 851 429 844 q 278 842 335 865 q 187 764 217 815 q 157 649 157 713 l 157 165 l 256 165 l 256 363 l 256 393 l 256 589 q 256 613 256 599 q 256 644 256 628 q 258 675 256 660 q 264 700 260 690 q 301 742 276 726 q 354 757 325 757 q 408 742 383 757 q 444 700 432 726 q 451 675 449 690 q 453 644 453 660 q 453 613 453 628 q 453 589 453 599 l 453 413 l 453 363 l 453 165 l 551 165 l 551 363 l 551 393 l 551 589 q 551 613 551 599 q 552 644 551 628 q 555 675 553 660 q 561 700 557 690 q 597 742 572 726 q 650 757 621 757 q 703 742 679 757 q 740 700 728 726 q 747 675 744 690 q 749 644 749 660 q 749 613 750 628 q 749 589 749 599 l 749 413 l 749 363 l 749 165 l 847 165 m 824 643 l 824 190 l 774 190 l 774 363 l 774 413 l 774 608 q 774 668 774 639 q 754 726 774 697 q 709 767 736 753 q 650 782 682 782 q 591 767 618 782 q 547 726 564 753 q 527 668 528 697 q 526 608 526 639 l 526 393 l 526 363 l 526 190 l 478 190 l 478 363 l 478 413 l 478 608 q 477 668 478 639 q 457 726 476 697 q 413 767 440 753 q 354 782 386 782 q 295 767 322 782 q 251 726 268 753 q 231 668 232 697 q 231 608 231 639 l 231 393 l 231 363 l 231 190 l 182 190 l 182 643 q 208 751 182 704 q 296 821 235 799 q 356 833 329 833 q 408 823 383 832 q 455 798 432 814 q 503 764 478 782 q 549 798 526 782 q 597 823 572 814 q 649 833 621 832 q 710 821 676 833 q 797 751 769 799 q 824 643 824 704 z "},"Q":{"ha":660,"x_min":22,"x_max":749,"o":"m 381 376 q 378 353 381 361 q 367 339 376 346 q 344 329 357 329 q 321 339 332 329 q 310 364 310 349 l 310 644 q 311 667 310 658 q 321 686 313 676 q 344 693 329 693 q 368 684 356 693 q 381 660 381 675 l 381 376 m 650 31 l 643 31 l 607 -50 l 317 -50 l 294 0 q 174 33 229 3 q 79 117 119 64 q 31 228 39 171 q 25 343 22 285 l 25 383 q 24 433 25 407 q 22 488 22 460 q 24 569 22 532 q 28 614 25 606 q 51 692 35 656 l 68 732 q 124 840 85 793 q 221 914 163 886 q 281 938 251 929 q 344 946 311 946 q 447 926 397 946 q 538 869 497 907 q 601 782 578 833 q 629 678 625 731 q 632 653 632 667 q 632 628 632 639 l 632 564 q 631 558 632 560 q 629 554 629 557 l 629 424 q 630 367 631 394 q 625 313 629 340 q 610 259 621 286 q 581 204 600 232 l 575 197 l 650 31 m 613 53 l 549 200 q 581 256 569 228 q 599 311 593 283 q 605 367 604 339 q 606 424 606 394 l 606 554 l 606 590 l 606 674 q 521 850 597 778 q 439 902 485 885 q 344 919 393 919 q 229 893 290 919 q 133 811 171 865 q 86 693 94 757 q 84 662 85 686 q 83 605 83 638 q 84 535 83 572 q 86 464 85 497 l 86 450 l 86 424 q 85 369 85 396 q 90 315 86 342 q 105 261 94 288 q 135 208 115 235 q 226 131 171 160 q 344 103 282 103 l 367 53 l 613 53 m 592 674 l 592 554 l 592 431 q 591 371 592 400 q 585 313 590 342 q 567 258 579 285 q 533 204 556 231 l 592 65 l 379 65 l 358 117 l 349 117 q 235 143 288 117 q 146 218 182 169 q 117 274 126 246 q 105 331 108 301 q 101 389 101 360 q 101 450 101 418 q 101 494 101 458 q 101 570 101 529 q 102 647 101 611 q 103 692 103 682 q 147 802 111 753 q 238 878 182 851 q 358 903 297 907 q 470 871 419 900 q 554 790 521 842 q 592 674 588 739 m 546 408 l 546 628 q 531 731 546 686 q 463 817 515 776 q 362 853 418 849 q 257 833 306 858 q 179 761 208 808 q 150 660 150 714 q 149 551 147 606 q 150 442 150 497 q 150 388 150 414 q 153 338 150 363 q 166 288 157 313 q 194 238 175 263 q 283 176 236 188 q 388 168 329 165 l 413 117 l 517 117 l 476 214 q 514 263 500 242 q 535 304 528 283 q 544 349 542 325 q 546 408 546 374 m 457 790 q 494 747 481 769 q 513 702 507 725 q 519 654 518 679 q 519 603 519 629 l 519 399 q 517 340 519 363 q 506 299 514 318 q 485 262 499 281 q 450 215 472 243 l 479 143 l 428 143 l 404 193 q 353 192 378 192 q 305 197 328 192 q 260 213 282 201 q 215 249 238 225 q 187 294 196 271 q 174 341 178 317 q 172 390 171 365 q 172 440 172 415 l 172 643 q 194 742 172 697 q 268 811 217 786 q 365 828 314 835 q 457 790 417 822 m 463 317 q 468 352 467 328 q 469 402 469 376 q 469 452 469 428 q 468 488 468 476 l 468 656 q 454 715 468 689 q 418 756 440 740 q 368 778 396 772 q 314 777 340 783 q 265 753 288 771 q 231 704 243 735 q 225 669 226 693 q 224 618 224 644 q 224 567 224 592 q 224 532 224 543 l 224 364 q 254 281 224 313 q 324 242 285 250 q 403 252 364 235 q 463 317 443 269 m 444 507 q 447 431 444 468 q 442 356 449 394 q 409 286 439 308 q 344 265 379 264 q 279 291 308 267 q 250 364 250 315 l 250 514 q 249 589 250 551 q 250 663 247 626 q 283 733 253 710 q 350 756 314 757 q 415 729 386 754 q 444 656 444 704 l 444 507 m 379 324 q 394 351 392 339 q 396 376 396 363 l 396 435 l 396 656 q 388 684 396 672 q 367 701 379 696 q 340 705 354 707 q 313 693 325 703 q 298 670 300 682 q 296 643 296 658 l 296 588 l 296 364 q 305 335 296 347 q 326 317 314 324 q 353 312 339 311 q 379 324 368 313 m 749 944 l 749 946 l 749 944 m 749 946 l 749 944 l 749 946 z "},"G":{"ha":660,"x_min":28,"x_max":633,"o":"m 53 700 l 53 699 l 51 697 l 53 700 m 347 949 q 459 926 407 949 q 550 865 511 904 q 611 774 589 826 q 633 663 633 722 l 633 367 q 621 285 633 324 q 588 213 608 246 l 568 168 q 466 47 535 93 q 310 0 397 0 q 226 13 268 0 l 225 13 q 113 80 161 33 q 42 190 64 126 q 29 252 31 222 q 28 317 28 282 l 28 547 q 29 610 28 581 q 42 672 31 640 l 58 710 l 42 672 l 50 693 l 53 699 l 54 701 l 53 700 l 71 738 q 72 747 71 743 q 76 757 74 751 q 148 867 97 819 q 261 936 199 915 q 305 946 283 943 q 347 949 326 949 m 608 663 q 588 764 608 717 q 531 847 567 811 q 449 903 496 882 q 347 924 401 924 q 269 911 308 924 q 166 850 211 893 q 100 749 121 807 q 88 690 90 719 q 86 629 86 661 l 86 399 q 88 338 86 367 q 100 279 90 310 q 166 178 121 221 q 269 117 211 136 q 347 106 311 106 q 449 126 401 106 q 531 181 496 146 q 588 265 567 217 q 608 367 608 313 l 608 628 l 332 628 l 332 401 l 382 401 l 382 367 q 373 342 382 351 q 349 331 364 332 q 323 340 333 331 q 313 364 313 349 q 310 415 310 389 q 311 464 310 440 l 311 514 l 311 564 q 310 615 310 589 q 313 664 310 640 q 323 689 313 679 q 349 697 333 699 q 373 688 364 697 q 382 663 382 678 l 382 649 l 608 649 l 608 663 m 594 369 q 567 256 594 307 q 494 171 539 204 q 392 126 449 138 q 275 133 335 115 q 176 191 218 150 q 115 288 135 232 q 103 344 104 315 q 101 400 101 372 l 101 517 l 101 633 q 103 690 101 663 q 114 746 104 718 q 176 842 133 801 q 275 900 218 883 q 392 908 335 918 q 494 864 449 897 q 567 779 539 831 q 594 665 594 728 l 397 665 q 381 702 397 688 q 343 714 365 717 q 308 695 318 711 q 299 656 299 679 l 299 492 l 299 410 q 299 371 299 393 q 314 333 299 349 q 351 319 329 318 q 386 339 374 321 q 397 378 397 353 q 397 418 397 404 l 347 418 l 347 615 l 594 615 l 594 369 m 544 356 q 546 408 547 382 q 544 461 544 433 l 544 567 l 397 567 l 397 468 l 446 468 q 446 445 446 463 q 446 408 446 428 q 446 370 446 388 q 444 347 446 353 q 415 296 438 317 q 361 271 392 275 q 302 281 329 267 q 260 324 275 296 q 251 349 254 333 q 248 382 249 365 q 248 415 247 399 q 249 442 249 431 l 249 563 q 249 584 249 567 q 249 622 249 601 q 249 660 249 643 q 250 682 250 678 q 279 737 256 717 q 331 763 303 757 q 388 756 360 768 q 433 714 417 744 l 539 714 q 485 808 524 771 q 397 857 446 844 q 297 856 349 869 q 204 800 244 843 q 172 754 183 778 q 156 706 161 731 q 151 656 151 682 q 150 604 150 631 l 150 393 q 165 290 150 335 q 232 210 181 246 q 330 172 276 178 q 432 190 383 167 q 511 258 481 214 q 544 356 542 301 m 521 542 q 522 449 521 496 q 519 357 524 403 q 490 271 517 310 q 419 213 464 232 q 330 198 376 193 q 244 231 283 203 q 188 301 200 263 q 175 392 175 340 l 175 576 q 174 623 175 600 q 174 668 172 646 q 181 713 175 690 q 201 757 188 735 q 271 820 228 800 q 358 838 314 840 q 442 810 403 835 q 504 739 482 785 l 446 739 q 389 781 422 769 q 323 786 356 793 q 264 756 290 779 q 228 694 238 732 q 226 667 226 688 q 224 624 225 647 q 224 582 224 601 q 224 556 224 563 l 224 415 q 226 347 224 379 q 258 285 229 315 q 317 249 282 258 q 386 251 351 240 q 442 290 419 263 q 469 353 465 317 q 472 388 472 371 q 471 422 471 404 l 471 492 l 422 492 l 422 542 l 521 542 z "},"a":{"ha":660,"x_min":25,"x_max":632,"o":"m 311 642 q 314 676 308 663 q 326 693 319 689 q 347 697 333 697 q 367 693 360 697 q 379 676 374 689 q 382 642 385 663 l 382 626 l 382 528 l 311 528 l 311 626 l 311 642 m 585 819 q 626 712 619 764 q 632 611 632 660 l 632 79 l 626 79 l 592 0 l 322 0 l 322 60 l 296 0 l 26 0 l 26 446 q 26 483 26 464 q 25 521 25 503 q 26 588 25 558 q 31 629 28 618 l 31 631 q 51 696 38 665 l 56 707 l 57 708 l 56 708 l 74 747 q 118 832 89 792 q 183 897 147 872 q 346 947 256 947 q 482 915 419 947 q 585 819 544 882 m 607 611 q 601 708 607 658 q 564 806 596 757 q 470 892 528 861 q 346 922 413 922 q 199 876 265 922 q 128 804 156 849 q 89 708 100 760 q 85 637 86 689 q 86 528 85 585 l 86 510 l 86 106 l 311 106 l 311 303 l 382 303 l 382 106 l 607 106 l 607 611 m 593 414 l 593 118 l 396 118 l 396 315 l 297 315 l 297 118 l 100 118 l 100 510 q 100 549 100 521 q 100 608 100 576 q 101 667 100 639 q 104 706 101 694 q 140 796 113 754 q 207 865 167 838 q 299 903 250 894 q 394 903 347 913 q 482 867 440 894 q 553 797 524 840 q 588 706 582 753 q 593 610 593 660 l 593 538 l 593 414 m 544 569 q 545 619 544 594 q 544 669 546 644 q 535 717 542 693 q 514 765 529 740 q 443 834 488 810 q 347 858 399 858 q 250 834 294 858 q 179 765 206 810 q 158 717 164 740 q 149 669 151 693 q 148 619 147 644 q 149 569 149 594 l 149 168 l 247 168 l 247 365 l 446 365 l 446 168 l 544 168 l 544 569 m 499 744 q 519 653 519 704 q 519 563 519 603 l 519 193 l 469 193 l 469 390 l 224 390 l 224 193 l 174 193 l 174 563 q 174 653 174 603 q 194 744 174 704 q 258 810 218 786 q 347 833 299 833 q 435 810 394 833 q 499 744 475 786 m 469 439 l 469 647 q 438 744 469 704 q 347 785 407 785 q 255 744 286 785 q 224 647 224 704 l 224 439 l 469 439 m 446 640 l 446 464 l 247 464 l 247 640 q 251 684 247 664 q 269 724 254 704 q 303 751 285 743 q 347 760 321 760 q 390 751 372 760 q 424 724 408 743 q 442 684 439 704 q 446 640 446 664 m 396 626 q 397 653 396 640 q 392 682 399 667 q 347 711 378 711 q 301 682 315 711 q 296 653 294 667 q 297 626 297 640 l 297 513 l 396 513 l 396 626 z "},"b":{"ha":660,"x_min":28,"x_max":639,"o":"m 385 667 q 374 641 385 651 q 350 631 364 631 l 315 631 l 315 701 l 350 701 q 374 692 364 701 q 385 667 385 682 m 385 365 q 374 340 385 350 q 350 331 364 331 l 315 331 l 315 400 l 350 400 q 374 390 364 400 q 385 365 385 381 m 571 167 l 575 176 l 571 167 m 636 386 q 632 310 639 347 q 607 239 625 272 q 592 213 600 224 l 590 210 l 589 208 l 582 190 l 579 185 l 581 189 l 576 181 l 571 167 l 565 157 q 523 93 549 121 q 465 44 497 65 q 311 0 397 0 l 28 0 l 28 863 l 63 938 l 63 950 l 349 950 q 506 903 438 950 l 506 904 q 563 855 538 885 q 607 790 588 825 q 631 719 624 758 q 636 643 638 679 q 597 514 632 572 q 624 453 615 486 q 636 386 633 421 m 583 250 q 610 385 617 315 q 597 453 608 419 q 565 514 585 486 q 597 576 585 543 q 610 644 608 610 q 583 779 617 714 q 492 882 549 844 q 349 924 429 924 l 88 924 l 88 106 l 349 106 q 492 146 428 106 q 543 192 519 165 q 583 250 567 218 m 596 222 l 597 225 l 600 231 l 596 222 m 251 122 l 103 122 l 103 913 l 251 913 q 333 913 293 913 q 409 905 372 913 q 479 877 446 897 q 544 817 513 857 q 583 745 569 783 q 597 667 596 707 q 585 589 597 628 q 547 517 572 550 q 585 444 572 483 q 597 366 597 406 q 583 288 596 326 q 544 217 569 250 q 479 157 513 176 q 409 130 446 138 q 333 122 372 122 q 251 122 293 122 m 546 644 q 542 717 550 685 q 510 781 533 749 q 453 835 483 818 q 391 859 424 853 q 324 864 358 865 q 251 863 289 863 l 153 863 l 153 172 l 251 172 q 324 171 289 172 q 391 176 358 169 q 453 199 424 182 q 510 254 483 217 q 542 318 533 286 q 546 390 550 350 q 525 458 542 429 q 485 517 508 488 q 525 576 508 547 q 546 644 542 606 m 251 838 q 318 840 285 838 q 385 835 351 842 q 447 810 421 826 q 493 761 472 793 q 520 699 514 729 q 519 633 526 669 q 494 571 513 597 q 454 517 475 544 q 494 464 475 490 q 519 401 513 438 q 520 335 526 365 q 493 274 514 306 q 447 224 472 242 q 385 200 421 207 q 318 195 351 193 q 251 197 285 197 l 176 197 l 176 838 l 251 838 m 385 547 q 449 592 425 558 q 474 665 474 625 q 449 740 474 707 q 385 783 425 772 q 353 788 376 786 q 305 789 331 789 q 257 789 279 789 q 226 789 235 789 l 226 542 q 257 542 235 542 q 305 542 279 542 q 353 543 331 542 q 385 547 376 544 m 385 251 q 449 295 425 263 q 474 369 474 328 q 449 443 474 410 q 385 488 425 476 q 353 492 376 490 q 305 493 331 493 q 257 493 279 493 q 226 493 235 493 l 226 246 q 257 246 235 246 q 305 246 279 246 q 353 247 331 246 q 385 251 376 249 m 449 665 q 429 607 449 633 q 378 571 410 581 q 353 567 371 568 q 315 567 335 567 q 276 567 294 567 q 251 567 258 567 l 251 764 q 276 764 258 764 q 315 764 294 764 q 353 763 335 764 q 378 760 371 761 q 429 724 410 750 q 449 665 449 699 m 399 665 q 389 695 399 682 q 364 713 379 708 q 331 717 347 718 q 300 715 315 715 l 300 615 q 331 614 315 615 q 364 618 347 613 q 389 635 379 622 q 399 665 399 649 m 449 369 q 429 310 449 336 q 378 275 410 285 q 353 272 371 272 q 315 271 335 271 q 276 271 294 271 q 251 271 258 271 l 251 468 q 276 468 258 468 q 315 468 294 468 q 353 467 335 468 q 378 464 371 465 q 429 428 410 454 q 449 369 449 401 m 399 369 q 384 403 399 389 q 350 418 369 418 l 300 418 l 300 319 l 350 319 q 384 334 369 319 q 399 369 399 349 z "},"c":{"ha":660,"x_min":24,"x_max":631,"o":"m 333 443 l 333 424 q 333 395 333 408 q 335 365 333 382 q 338 361 335 364 l 354 394 l 354 407 l 631 407 l 631 365 q 583 208 631 279 l 565 169 q 522 101 549 132 q 463 47 496 69 q 390 13 429 25 q 307 0 350 0 q 265 3 286 0 q 224 14 243 7 q 110 80 158 33 q 39 190 63 126 q 26 252 28 222 q 24 315 24 282 l 24 547 q 26 611 24 582 q 39 672 28 640 l 46 692 l 67 738 q 69 746 68 742 q 72 757 71 750 q 147 866 94 818 q 260 936 199 914 q 344 949 299 949 q 455 926 403 949 q 546 865 507 904 q 608 774 585 826 q 631 663 631 722 l 631 622 l 625 622 l 590 543 l 335 543 l 335 515 q 334 508 335 511 q 333 501 333 504 l 333 464 l 333 443 m 308 565 q 307 615 307 589 q 310 665 307 640 q 321 690 311 681 q 346 699 331 699 q 369 688 360 697 q 379 663 379 678 l 379 649 l 606 649 l 606 663 q 585 764 606 717 q 528 847 564 811 q 446 903 493 882 q 344 924 399 924 q 306 921 325 924 q 268 911 286 918 q 163 850 207 893 q 97 749 118 807 q 85 691 88 719 q 83 631 83 663 l 83 399 q 85 338 83 367 q 97 281 88 310 q 163 178 118 222 q 268 118 207 135 q 344 104 307 104 q 446 125 399 104 q 528 181 493 146 q 585 264 564 217 q 606 365 606 311 l 606 381 l 379 381 l 379 365 q 369 342 379 351 q 346 331 360 332 q 321 340 331 331 q 310 364 311 349 q 307 414 307 389 q 308 464 307 439 q 309 489 308 476 q 310 515 310 501 q 309 540 310 528 q 308 565 308 551 m 592 663 l 394 663 q 381 697 394 683 q 347 713 367 711 q 312 700 326 714 q 296 667 297 686 q 294 591 293 629 q 296 515 296 553 q 294 440 296 478 q 296 364 293 401 q 313 327 297 339 q 347 316 329 315 q 380 329 365 317 q 394 367 394 342 l 589 367 l 592 367 q 564 253 592 304 q 491 168 536 201 q 389 124 446 135 q 272 132 332 113 q 174 190 215 149 q 113 286 132 231 q 100 342 101 314 q 99 399 99 369 l 99 515 l 99 632 q 100 688 99 660 q 113 744 101 717 q 174 840 132 800 q 272 899 215 881 q 389 906 332 917 q 491 861 446 894 q 564 776 536 828 q 592 663 592 725 m 431 713 l 536 713 q 494 794 524 760 q 424 845 464 828 q 338 861 383 863 q 250 836 292 860 q 183 776 210 814 q 150 694 157 739 q 148 660 149 686 q 147 604 147 633 q 147 549 147 575 q 147 515 147 524 q 147 481 147 507 q 147 425 147 454 q 148 370 147 396 q 150 336 149 344 q 183 253 157 290 q 250 194 210 217 q 338 169 292 171 q 424 185 383 168 q 494 237 464 203 q 536 318 524 271 l 431 318 q 394 281 417 293 q 347 268 371 268 q 299 280 322 268 q 261 315 276 292 q 246 363 246 339 q 246 414 246 388 l 246 515 l 246 617 q 246 667 246 643 q 261 715 246 692 q 299 751 276 739 q 347 762 322 763 q 394 749 371 761 q 431 713 417 736 m 501 738 l 443 738 q 399 774 425 763 q 345 786 372 786 q 292 774 318 786 q 247 738 265 763 q 225 685 228 711 q 222 629 222 658 l 222 515 l 222 401 q 225 346 222 372 q 247 293 228 319 q 292 256 265 268 q 345 244 318 244 q 399 256 372 244 q 443 293 425 268 l 501 293 q 453 232 483 256 q 386 199 422 208 q 312 197 350 190 q 240 229 274 204 q 191 288 208 253 q 172 361 174 322 q 172 438 171 400 q 172 515 172 476 q 172 592 172 554 q 172 668 171 631 q 191 742 174 708 q 240 800 208 776 q 312 832 274 825 q 386 831 350 839 q 453 799 422 822 q 501 738 483 775 z "},"d":{"ha":660,"x_min":25,"x_max":632,"o":"m 381 365 q 374 344 381 354 q 356 332 367 335 q 332 331 349 331 l 315 331 l 310 331 l 310 699 l 315 699 q 325 699 321 699 q 332 700 329 700 q 356 696 344 700 q 358 694 357 696 q 360 693 360 694 l 363 693 l 364 693 l 365 692 l 367 692 l 367 690 l 368 689 l 369 688 l 371 688 l 372 686 l 372 685 l 376 679 q 378 678 378 679 l 378 676 q 378 674 378 675 q 379 672 379 674 q 381 671 379 672 l 381 669 q 383 652 383 661 q 381 633 382 643 l 381 614 l 381 490 l 381 447 l 381 365 m 346 949 q 458 926 406 949 q 549 865 510 904 q 610 774 588 826 q 632 663 632 722 l 632 367 q 586 213 632 282 l 567 168 q 465 47 533 93 q 308 0 396 0 l 25 0 l 25 863 l 60 938 l 60 949 l 346 949 m 606 663 q 585 764 606 717 q 530 847 565 811 q 447 903 494 882 q 346 924 400 924 l 85 924 l 85 106 l 346 106 q 447 126 400 106 q 530 181 494 146 q 585 265 565 217 q 606 367 606 313 l 606 663 m 593 663 l 593 367 q 574 271 593 315 q 521 193 554 226 q 442 140 488 160 q 346 121 397 121 l 297 121 l 247 121 l 100 121 l 100 910 l 247 910 l 297 910 l 346 910 q 442 890 397 910 q 521 838 488 871 q 574 759 554 804 q 593 663 593 714 m 543 367 l 543 663 q 528 740 543 704 q 485 802 513 775 q 423 844 458 829 q 346 860 388 860 l 297 860 l 247 860 l 149 860 l 149 169 l 297 169 l 346 169 q 423 185 388 169 q 485 227 458 200 q 528 290 513 254 q 543 367 543 326 m 519 663 l 519 367 q 506 299 519 331 q 468 244 492 268 q 413 208 444 221 q 346 194 382 194 l 321 194 l 297 194 l 174 194 l 174 836 l 247 836 l 297 836 l 346 836 q 413 822 382 836 q 468 785 444 808 q 506 730 492 761 q 519 663 519 699 m 469 367 l 469 663 q 433 750 469 714 q 346 786 397 786 l 222 786 l 222 713 l 222 417 l 222 243 l 346 243 q 433 279 397 243 q 469 367 469 315 m 444 663 l 444 367 q 415 297 444 326 q 346 268 386 268 l 247 268 l 247 417 l 247 713 l 247 761 l 346 761 q 415 732 386 761 q 444 663 444 703 m 396 365 q 397 428 397 397 q 396 490 396 458 l 396 615 q 397 645 396 631 q 394 675 399 660 q 393 678 393 676 l 393 679 q 392 681 393 681 l 392 682 q 390 685 392 683 l 390 686 l 388 689 q 386 690 388 690 l 386 693 q 385 694 385 693 q 382 697 385 694 q 381 699 381 697 q 379 700 379 699 q 376 701 376 701 q 374 703 375 703 q 371 706 372 704 q 369 706 369 706 q 368 707 369 707 q 364 708 367 708 q 361 710 363 710 q 358 711 360 710 q 328 714 343 715 q 297 713 313 713 l 297 614 l 297 318 q 328 317 313 318 q 360 319 343 315 q 385 336 375 324 q 396 365 394 349 z "},"e":{"ha":660,"x_min":25,"x_max":633,"o":"m 633 672 l 626 672 l 618 651 l 633 651 l 633 376 l 626 376 l 618 356 l 633 356 l 633 79 l 626 79 l 592 0 l 25 0 l 25 863 l 60 936 l 60 949 l 633 949 l 633 672 m 607 697 l 607 922 l 85 922 l 85 106 l 607 106 l 607 331 l 311 331 l 311 401 l 607 401 l 607 626 l 311 626 l 311 697 l 607 697 m 592 317 l 592 119 l 296 119 l 246 119 l 97 119 l 97 908 l 246 908 l 296 908 l 592 908 l 592 711 l 296 711 l 296 613 l 592 613 l 592 415 l 296 415 l 296 317 l 592 317 l 592 317 m 542 168 l 542 267 l 246 267 l 246 465 l 542 465 l 542 564 l 246 564 l 246 761 l 542 761 l 542 860 l 296 860 l 246 860 l 147 860 l 147 168 l 246 168 l 296 168 l 542 168 l 542 168 m 518 243 l 518 193 l 296 193 l 246 193 l 172 193 l 172 835 l 246 835 l 296 835 l 518 835 l 518 785 l 221 785 l 221 539 l 518 539 l 518 489 l 221 489 l 221 243 l 518 243 l 518 243 z "},"g":{"ha":660,"x_min":28,"x_max":633,"o":"m 53 700 l 53 699 l 51 697 l 53 700 m 347 949 q 459 926 407 949 q 550 865 511 904 q 611 774 589 826 q 633 663 633 722 l 633 367 q 621 285 633 324 q 588 213 608 246 l 568 168 q 466 47 535 93 q 310 0 397 0 q 226 13 268 0 l 225 13 q 113 80 161 33 q 42 190 64 126 q 29 252 31 222 q 28 317 28 282 l 28 547 q 29 610 28 581 q 42 672 31 640 l 58 710 l 42 672 l 50 693 l 53 699 l 54 701 l 53 700 l 71 738 q 72 747 71 743 q 76 757 74 751 q 148 867 97 819 q 261 936 199 915 q 305 946 283 943 q 347 949 326 949 m 608 663 q 588 764 608 717 q 531 847 567 811 q 449 903 496 882 q 347 924 401 924 q 269 911 308 924 q 166 850 211 893 q 100 749 121 807 q 88 690 90 719 q 86 629 86 661 l 86 399 q 88 338 86 367 q 100 279 90 310 q 166 178 121 221 q 269 117 211 136 q 347 106 311 106 q 449 126 401 106 q 531 181 496 146 q 588 265 567 217 q 608 367 608 313 l 608 628 l 332 628 l 332 401 l 382 401 l 382 367 q 373 342 382 351 q 349 331 364 332 q 323 340 333 331 q 313 364 313 349 q 310 415 310 389 q 311 464 310 440 l 311 514 l 311 564 q 310 615 310 589 q 313 664 310 640 q 323 689 313 679 q 349 697 333 699 q 373 688 364 697 q 382 663 382 678 l 382 649 l 608 649 l 608 663 m 594 369 q 567 256 594 307 q 494 171 539 204 q 392 126 449 138 q 275 133 335 115 q 176 191 218 150 q 115 288 135 232 q 103 344 104 315 q 101 400 101 372 l 101 517 l 101 633 q 103 690 101 663 q 114 746 104 718 q 176 842 133 801 q 275 900 218 883 q 392 908 335 918 q 494 864 449 897 q 567 779 539 831 q 594 665 594 728 l 397 665 q 381 702 397 688 q 343 714 365 717 q 308 695 318 711 q 299 656 299 679 l 299 492 l 299 410 q 299 371 299 393 q 314 333 299 349 q 351 319 329 318 q 386 339 374 321 q 397 378 397 353 q 397 418 397 404 l 347 418 l 347 615 l 594 615 l 594 369 m 544 356 q 546 408 547 382 q 544 461 544 433 l 544 567 l 397 567 l 397 468 l 446 468 q 446 445 446 463 q 446 408 446 428 q 446 370 446 388 q 444 347 446 353 q 415 296 438 317 q 361 271 392 275 q 302 281 329 267 q 260 324 275 296 q 251 349 254 333 q 248 382 249 365 q 248 415 247 399 q 249 442 249 431 l 249 563 q 249 584 249 567 q 249 622 249 601 q 249 660 249 643 q 250 682 250 678 q 279 737 256 717 q 331 763 303 757 q 388 756 360 768 q 433 714 417 744 l 539 714 q 485 808 524 771 q 397 857 446 844 q 297 856 349 869 q 204 800 244 843 q 172 754 183 778 q 156 706 161 731 q 151 656 151 682 q 150 604 150 631 l 150 393 q 165 290 150 335 q 232 210 181 246 q 330 172 276 178 q 432 190 383 167 q 511 258 481 214 q 544 356 542 301 m 521 542 q 522 449 521 496 q 519 357 524 403 q 490 271 517 310 q 419 213 464 232 q 330 198 376 193 q 244 231 283 203 q 188 301 200 263 q 175 392 175 340 l 175 576 q 174 623 175 600 q 174 668 172 646 q 181 713 175 690 q 201 757 188 735 q 271 820 228 800 q 358 838 314 840 q 442 810 403 835 q 504 739 482 785 l 446 739 q 389 781 422 769 q 323 786 356 793 q 264 756 290 779 q 228 694 238 732 q 226 667 226 688 q 224 624 225 647 q 224 582 224 601 q 224 556 224 563 l 224 415 q 226 347 224 379 q 258 285 229 315 q 317 249 282 258 q 386 251 351 240 q 442 290 419 263 q 469 353 465 317 q 472 388 472 371 q 471 422 471 404 l 471 492 l 422 492 l 422 542 l 521 542 z "},"h":{"ha":660,"x_min":25,"x_max":633,"o":"m 356 949 l 633 949 l 633 79 l 628 79 l 592 0 l 322 0 l 322 57 l 296 0 l 25 0 l 25 863 l 60 938 l 60 949 l 336 949 l 336 896 l 356 938 l 356 949 m 607 106 l 607 924 l 381 924 l 381 628 l 311 628 l 311 924 l 85 924 l 85 106 l 311 106 l 311 401 l 381 401 l 381 106 l 607 106 m 592 414 l 592 117 l 393 117 l 393 414 l 294 414 l 294 117 l 97 117 l 97 414 l 97 611 l 97 907 l 294 907 l 294 611 l 393 611 l 393 907 l 592 907 l 592 611 l 592 414 l 592 414 m 542 167 l 542 857 l 443 857 l 443 561 l 246 561 l 246 857 l 147 857 l 147 167 l 246 167 l 246 463 l 443 463 l 443 167 l 542 167 l 542 167 m 517 833 l 517 192 l 468 192 l 468 488 l 221 488 l 221 192 l 172 192 l 172 833 l 221 833 l 221 536 l 468 536 l 468 833 l 517 833 l 517 833 z "},"i":{"ha":367,"x_min":25,"x_max":336,"o":"m 60 949 l 336 949 l 336 79 l 332 79 l 296 0 l 25 0 l 25 863 l 60 938 l 60 949 m 311 106 l 311 924 l 85 924 l 85 106 l 311 106 m 297 910 l 297 119 l 100 119 l 100 910 l 297 910 l 297 910 m 247 169 l 247 860 l 149 860 l 149 169 l 247 169 l 247 169 m 224 835 l 224 194 l 174 194 l 174 835 l 224 835 l 224 835 z "},"j":{"ha":660,"x_min":24,"x_max":631,"o":"m 631 949 l 631 399 q 628 335 631 365 q 615 272 626 304 q 600 238 608 254 q 581 207 592 222 l 571 182 l 565 172 q 495 74 542 117 q 392 13 449 32 q 306 0 347 0 q 197 22 247 0 q 107 83 146 44 q 46 173 68 121 q 24 283 24 225 l 24 319 l 58 396 l 58 406 l 319 406 l 319 863 l 353 938 l 353 949 l 631 949 m 604 924 l 378 924 l 378 665 l 378 514 q 378 490 378 503 q 379 464 379 476 q 381 415 381 440 q 378 364 381 389 q 367 340 378 350 q 342 332 357 331 q 318 342 328 332 q 308 367 308 351 l 308 381 l 83 381 l 83 367 q 103 265 83 313 q 159 181 124 217 q 242 126 194 146 q 343 106 289 106 q 382 108 363 106 q 421 117 401 110 q 525 178 481 136 q 590 281 569 221 q 602 338 600 308 q 604 399 604 367 l 604 924 m 571 182 l 565 172 q 567 177 567 175 q 571 182 568 179 m 603 254 l 603 251 l 604 260 q 603 258 604 258 q 603 254 603 257 m 592 581 l 592 417 q 588 335 592 374 q 565 256 585 296 q 490 165 536 197 q 392 124 443 133 q 288 128 340 115 q 193 172 235 140 q 125 253 151 204 q 99 368 99 303 l 101 368 l 296 368 q 313 329 296 344 q 354 319 331 314 q 389 346 379 324 q 394 366 394 357 q 394 386 394 375 l 394 561 l 394 910 l 592 910 l 592 581 m 539 329 q 541 378 540 339 q 542 462 542 417 q 542 546 542 507 q 542 594 542 585 l 542 861 l 443 861 l 443 485 l 443 390 q 440 345 443 367 q 419 303 438 324 q 381 275 403 283 q 335 269 358 267 q 292 283 313 271 q 260 318 272 296 l 154 318 q 197 234 167 267 q 267 185 228 201 q 351 171 307 169 q 433 190 394 172 q 500 243 471 208 q 539 329 529 278 m 518 836 l 518 369 q 499 288 518 322 q 451 230 481 253 q 383 199 421 207 q 309 197 346 190 q 240 228 272 204 q 189 293 208 251 l 246 293 q 283 260 261 272 q 328 245 304 249 q 375 248 351 242 q 419 269 399 254 q 467 351 461 299 q 469 399 471 375 q 468 447 468 424 l 468 836 l 518 836 z "},"k":{"ha":660,"x_min":21,"x_max":651,"o":"m 436 514 q 489 408 461 464 q 544 296 517 353 q 599 184 572 239 q 651 79 626 129 l 643 79 l 608 0 l 306 0 l 296 17 l 289 0 l 21 0 l 21 861 l 54 936 l 54 947 l 331 947 l 331 928 q 336 938 333 932 q 340 947 339 943 l 651 947 l 436 514 m 407 514 l 610 922 l 357 922 l 304 815 l 304 922 l 79 922 l 79 104 l 304 104 l 304 211 l 357 104 l 610 104 l 407 514 m 589 908 l 393 514 l 589 119 l 369 119 l 293 272 l 293 119 l 96 119 l 96 317 l 96 908 l 244 908 l 293 908 l 293 757 l 369 908 l 589 908 m 339 514 l 510 860 l 400 860 l 244 546 l 244 860 l 146 860 l 146 168 l 244 168 l 244 482 l 400 168 l 510 168 l 339 514 m 471 835 l 311 514 l 471 193 l 415 193 l 256 514 l 415 835 l 471 835 m 219 567 l 219 193 l 169 193 l 169 835 l 219 835 l 219 588 l 219 567 z "},"l":{"ha":592,"x_min":26,"x_max":567,"o":"m 338 357 l 567 357 l 567 79 l 561 79 l 526 0 l 26 0 l 26 863 l 61 938 l 61 950 l 338 950 l 338 357 m 542 106 l 542 332 l 313 332 l 313 924 l 86 924 l 86 106 l 542 106 m 528 318 l 528 121 l 297 121 l 100 121 l 100 318 l 100 911 l 297 911 l 297 318 l 528 318 l 528 318 m 478 171 l 478 269 l 249 269 l 249 861 l 150 861 l 150 318 l 150 219 l 150 171 l 478 171 l 478 171 m 453 244 l 453 194 l 175 194 l 175 836 l 224 836 l 224 244 l 453 244 l 453 244 z "},"m":{"ha":969,"x_min":32,"x_max":936,"o":"m 847 869 q 913 775 890 828 q 936 663 936 722 l 936 79 l 932 79 l 896 0 l 625 0 l 625 57 l 600 0 l 329 0 l 329 57 l 304 0 l 33 0 l 33 217 q 32 306 32 256 q 32 397 32 357 q 32 488 32 442 q 33 579 32 535 q 61 697 35 639 l 78 733 q 108 807 89 772 q 156 869 128 842 q 248 928 196 908 q 356 949 300 949 q 431 938 396 949 q 501 907 467 928 q 573 938 538 928 q 649 949 608 949 q 756 928 704 949 q 847 869 807 908 m 911 663 q 889 765 910 717 q 829 850 868 814 q 746 904 793 886 q 649 922 699 922 q 501 876 571 922 q 356 922 432 922 q 258 904 306 922 q 174 850 210 886 q 114 765 135 814 q 93 663 93 717 q 93 299 90 479 l 93 118 l 93 104 l 319 104 l 319 644 q 329 688 319 679 q 354 696 339 696 q 378 688 367 696 q 389 644 389 679 l 389 104 l 615 104 l 615 644 q 626 688 615 679 q 650 696 636 696 q 674 688 664 696 q 685 644 685 679 l 685 104 l 911 104 l 911 118 l 911 300 l 911 663 m 404 643 q 394 688 404 668 q 354 708 385 708 q 315 688 324 708 q 306 643 306 668 l 306 550 l 306 393 l 306 363 l 306 117 l 107 117 q 106 388 107 253 q 107 661 106 524 q 147 793 107 736 q 244 879 186 850 q 372 906 303 908 q 503 857 442 903 q 632 906 563 903 q 760 879 701 908 q 858 793 818 850 q 897 661 897 736 q 898 388 899 524 q 897 117 897 253 l 700 117 l 700 363 l 700 413 l 700 550 l 700 643 q 691 688 700 668 q 650 708 682 708 q 610 688 619 708 q 601 643 601 668 l 601 511 l 601 404 l 601 393 l 601 363 l 601 117 l 404 117 l 404 363 l 404 413 l 404 511 l 404 643 m 847 165 l 847 649 q 817 764 847 713 q 726 842 788 815 q 607 851 669 865 q 551 829 575 844 q 503 794 526 814 q 453 829 478 814 q 397 851 429 844 q 278 842 335 865 q 187 764 217 815 q 157 649 157 713 l 157 165 l 256 165 l 256 363 l 256 393 l 256 589 q 256 613 256 599 q 256 644 256 628 q 258 675 256 660 q 264 700 260 690 q 301 742 276 726 q 354 757 325 757 q 408 742 383 757 q 444 700 432 726 q 451 675 449 690 q 453 644 453 660 q 453 613 453 628 q 453 589 453 599 l 453 413 l 453 363 l 453 165 l 551 165 l 551 363 l 551 393 l 551 589 q 551 613 551 599 q 552 644 551 628 q 555 675 553 660 q 561 700 557 690 q 597 742 572 726 q 650 757 621 757 q 703 742 679 757 q 740 700 728 726 q 747 675 744 690 q 749 644 749 660 q 749 613 750 628 q 749 589 749 599 l 749 413 l 749 363 l 749 165 l 847 165 m 824 643 l 824 190 l 774 190 l 774 363 l 774 413 l 774 608 q 774 668 774 639 q 754 726 774 697 q 709 767 736 753 q 650 782 682 782 q 591 767 618 782 q 547 726 564 753 q 527 668 528 697 q 526 608 526 639 l 526 393 l 526 363 l 526 190 l 478 190 l 478 363 l 478 413 l 478 608 q 477 668 478 639 q 457 726 476 697 q 413 767 440 753 q 354 782 386 782 q 295 767 322 782 q 251 726 268 753 q 231 668 232 697 q 231 608 231 639 l 231 393 l 231 363 l 231 190 l 182 190 l 182 643 q 208 751 182 704 q 296 821 235 799 q 356 833 329 833 q 408 823 383 832 q 455 798 432 814 q 503 764 478 782 q 549 798 526 782 q 597 823 572 814 q 649 833 621 832 q 710 821 676 833 q 797 751 769 799 q 824 643 824 704 z "},"n":{"ha":660,"x_min":26,"x_max":635,"o":"m 579 831 q 628 715 621 769 q 633 603 635 661 l 633 79 l 629 79 l 593 0 l 322 0 l 322 57 l 297 0 l 28 0 l 28 501 q 28 508 28 504 q 26 515 28 511 q 30 607 26 563 q 53 696 33 651 l 74 740 q 117 831 86 786 q 217 917 157 886 q 347 949 278 949 q 478 917 417 949 q 579 831 539 886 m 608 603 q 603 710 610 658 q 560 815 597 763 q 466 894 522 865 q 347 924 410 924 q 228 894 285 924 q 136 815 172 865 q 92 710 99 763 q 86 603 86 658 q 88 583 88 597 l 88 106 l 313 106 l 313 646 q 323 689 313 681 q 347 697 333 697 q 372 689 361 697 q 382 646 382 681 l 382 106 l 608 106 l 608 583 l 608 603 m 546 807 q 575 753 565 781 q 589 699 585 726 q 593 642 593 671 q 593 585 593 614 l 593 119 l 396 119 l 396 367 l 396 417 l 396 553 l 396 646 q 387 692 396 672 q 346 711 378 711 q 306 692 315 711 q 297 647 297 672 l 297 553 l 297 396 l 297 367 l 297 119 l 100 119 l 100 585 q 100 642 100 614 q 103 699 100 671 q 117 753 107 726 q 146 807 126 781 q 234 883 182 856 q 346 910 286 910 q 458 883 406 910 q 546 807 511 856 m 543 571 q 544 620 543 596 q 544 669 546 644 q 535 717 542 693 q 514 767 529 742 q 442 835 486 811 q 346 860 399 860 q 250 835 294 860 q 178 767 206 811 q 149 669 149 718 q 149 571 149 621 l 149 169 l 247 169 l 247 367 l 247 396 l 247 592 q 247 617 247 601 q 248 647 247 632 q 251 678 249 663 q 257 703 253 693 q 292 746 268 731 q 346 761 317 761 q 399 746 375 761 q 436 703 424 731 q 442 678 440 693 q 445 647 444 663 q 445 617 446 632 q 444 592 444 601 l 444 417 l 444 367 l 444 169 l 543 169 l 543 571 m 497 744 q 513 702 508 725 q 519 655 518 679 q 520 607 521 631 q 519 564 519 583 l 519 193 l 469 193 l 469 367 l 469 417 l 469 611 q 469 672 469 643 q 450 731 469 701 q 405 772 432 757 q 346 786 378 786 q 287 772 314 786 q 243 731 260 757 q 223 672 224 701 q 222 611 222 643 l 222 396 l 222 367 l 222 193 l 174 193 l 174 564 q 174 655 174 604 q 194 746 174 706 q 258 811 218 788 q 346 835 299 835 q 435 811 394 835 q 497 744 475 788 z "},"o":{"ha":660,"x_min":24,"x_max":629,"o":"m 599 794 q 622 728 614 763 q 629 649 629 693 l 629 381 q 622 299 629 335 q 599 232 614 264 q 591 219 594 225 q 583 207 588 214 l 557 150 q 453 40 521 81 q 307 0 386 0 q 160 40 226 0 q 57 150 93 81 q 32 218 40 183 q 24 297 24 253 l 24 565 q 30 637 24 606 q 50 697 36 668 l 68 739 q 90 796 76 769 q 197 908 129 867 q 344 949 264 949 q 492 907 424 949 q 599 794 560 865 m 604 649 q 575 783 604 725 q 478 886 540 849 q 344 924 417 924 q 208 886 269 924 q 114 783 147 849 q 83 649 83 726 l 83 381 q 91 306 83 339 q 114 244 99 274 q 208 142 147 179 q 344 106 269 106 q 478 142 417 106 q 575 244 540 179 q 597 306 590 274 q 604 381 604 339 l 604 649 m 379 379 q 377 356 379 364 q 367 339 375 347 q 344 331 358 331 q 319 340 331 331 q 308 367 308 350 l 308 649 q 310 673 308 664 q 321 689 313 682 q 331 694 326 692 q 343 697 336 697 q 368 688 357 697 q 379 663 379 679 l 379 379 m 590 633 l 590 367 q 553 235 590 292 q 458 148 515 178 q 333 119 401 118 q 204 163 265 121 q 117 268 144 203 q 100 331 103 300 q 97 394 97 363 l 97 663 q 135 794 97 738 q 229 881 172 850 q 354 909 286 911 q 483 865 422 907 q 535 819 514 844 q 571 760 556 794 q 587 697 583 728 q 590 633 590 667 m 542 596 q 541 653 542 625 q 535 707 540 681 q 516 758 529 733 q 478 807 503 783 q 373 858 431 851 q 265 844 315 865 q 180 774 214 822 q 146 663 146 726 l 146 433 q 147 376 146 404 q 152 322 147 347 q 170 271 157 296 q 208 222 183 246 q 314 170 256 178 q 423 185 372 163 q 508 254 474 207 q 542 367 542 301 l 542 596 m 475 775 q 505 728 496 751 q 517 679 514 704 q 518 628 519 654 q 517 576 517 603 l 517 367 q 484 264 517 306 q 404 204 451 222 q 304 197 357 186 q 213 253 251 207 q 183 301 192 276 q 171 350 174 325 q 169 401 168 375 q 171 453 171 426 l 171 663 q 203 765 171 722 q 283 824 236 807 q 383 831 331 842 q 475 775 435 821 m 458 321 q 465 356 463 332 q 467 407 467 381 q 467 457 467 433 q 467 492 467 481 l 467 663 q 436 745 467 714 q 366 784 406 776 q 287 773 326 792 q 229 707 247 754 q 223 672 225 696 q 220 622 221 649 q 220 572 219 596 q 221 538 221 549 l 221 367 q 251 284 221 315 q 321 245 281 253 q 400 256 361 238 q 458 321 439 274 m 443 511 q 444 435 443 472 q 442 360 444 397 q 408 289 439 311 q 340 267 376 267 q 274 293 304 268 q 244 367 244 318 l 244 518 q 244 594 244 556 q 246 669 243 632 q 280 740 249 717 q 347 761 311 763 q 413 735 383 760 q 443 663 443 710 l 443 511 m 376 329 q 391 353 389 340 q 393 381 393 365 l 393 436 l 393 663 q 385 690 393 678 q 364 707 376 701 q 338 711 351 713 q 311 700 324 710 q 297 676 299 689 q 294 647 294 663 l 294 592 l 294 367 q 303 338 294 350 q 324 321 311 326 q 350 317 336 315 q 376 329 364 318 z "},"p":{"ha":660,"x_min":28,"x_max":635,"o":"m 383 663 q 373 638 383 647 q 349 628 363 628 l 314 628 l 314 697 l 349 697 q 373 688 363 697 q 383 663 383 678 m 550 864 q 635 661 635 779 q 623 579 635 618 q 590 507 611 540 l 569 464 q 477 351 538 397 q 339 297 417 306 l 339 79 l 333 79 l 299 0 l 28 0 l 28 863 l 63 938 l 63 949 l 349 949 q 458 927 407 949 q 550 864 510 906 m 349 401 q 450 422 403 401 q 533 477 497 442 q 589 560 568 513 q 610 661 610 607 q 533 847 610 771 q 449 903 496 883 q 349 924 401 924 l 88 924 l 88 106 l 314 106 l 314 401 l 349 401 m 322 575 l 324 578 q 322 575 322 575 m 299 910 q 406 901 356 910 q 504 853 456 892 q 572 768 549 818 q 596 663 596 718 q 572 557 596 607 q 504 472 549 507 q 456 441 481 453 q 406 424 432 429 q 354 417 381 418 q 299 415 328 415 l 299 119 l 101 119 l 101 910 l 250 910 l 299 910 m 469 507 q 536 598 517 543 q 540 711 556 653 q 482 808 525 769 q 381 857 439 847 q 338 859 372 858 q 265 860 304 860 q 193 860 226 860 q 151 860 160 860 l 151 169 l 250 169 l 250 465 q 307 464 279 465 q 362 465 335 463 q 416 477 389 468 q 469 507 443 486 m 519 688 q 503 585 526 633 q 432 511 479 538 q 383 494 407 497 q 331 490 358 490 l 225 490 l 225 193 l 176 193 l 176 835 q 215 835 185 835 q 281 835 246 835 q 346 833 315 835 q 385 831 376 832 q 475 780 438 819 q 519 688 513 740 m 383 544 q 448 589 424 556 q 472 663 472 622 q 448 736 472 703 q 383 781 424 769 q 352 785 375 783 q 303 786 329 786 q 256 786 278 786 q 225 786 233 786 l 225 539 q 256 539 233 539 q 303 539 278 539 q 352 540 329 539 q 383 544 375 542 m 447 663 q 428 603 447 629 q 376 568 408 578 q 351 565 369 565 q 313 564 333 564 q 275 564 293 564 q 250 564 257 564 l 250 761 q 275 761 257 761 q 313 761 293 761 q 351 760 333 761 q 376 757 369 758 q 428 721 408 747 q 447 663 447 694 m 399 663 q 388 692 399 679 q 363 710 378 706 q 331 714 346 715 q 299 713 315 713 l 299 614 q 331 612 315 614 q 363 615 346 610 q 388 633 378 619 q 399 663 399 646 z "},"q":{"ha":660,"x_min":22,"x_max":749,"o":"m 381 376 q 378 353 381 361 q 367 339 376 346 q 344 329 357 329 q 321 339 332 329 q 310 364 310 349 l 310 644 q 311 667 310 658 q 321 686 313 676 q 344 693 329 693 q 368 684 356 693 q 381 660 381 675 l 381 376 m 650 31 l 643 31 l 607 -50 l 317 -50 l 294 0 q 174 33 229 3 q 79 117 119 64 q 31 228 39 171 q 25 343 22 285 l 25 383 q 24 433 25 407 q 22 488 22 460 q 24 569 22 532 q 28 614 25 606 q 51 692 35 656 l 68 732 q 124 840 85 793 q 221 914 163 886 q 281 938 251 929 q 344 946 311 946 q 447 926 397 946 q 538 869 497 907 q 601 782 578 833 q 629 678 625 731 q 632 653 632 667 q 632 628 632 639 l 632 564 q 631 558 632 560 q 629 554 629 557 l 629 424 q 630 367 631 394 q 625 313 629 340 q 610 259 621 286 q 581 204 600 232 l 575 197 l 650 31 m 613 53 l 549 200 q 581 256 569 228 q 599 311 593 283 q 605 367 604 339 q 606 424 606 394 l 606 554 l 606 590 l 606 674 q 521 850 597 778 q 439 902 485 885 q 344 919 393 919 q 229 893 290 919 q 133 811 171 865 q 86 693 94 757 q 84 662 85 686 q 83 605 83 638 q 84 535 83 572 q 86 464 85 497 l 86 450 l 86 424 q 85 369 85 396 q 90 315 86 342 q 105 261 94 288 q 135 208 115 235 q 226 131 171 160 q 344 103 282 103 l 367 53 l 613 53 m 592 674 l 592 554 l 592 431 q 591 371 592 400 q 585 313 590 342 q 567 258 579 285 q 533 204 556 231 l 592 65 l 379 65 l 358 117 l 349 117 q 235 143 288 117 q 146 218 182 169 q 117 274 126 246 q 105 331 108 301 q 101 389 101 360 q 101 450 101 418 q 101 494 101 458 q 101 570 101 529 q 102 647 101 611 q 103 692 103 682 q 147 802 111 753 q 238 878 182 851 q 358 903 297 907 q 470 871 419 900 q 554 790 521 842 q 592 674 588 739 m 546 408 l 546 628 q 531 731 546 686 q 463 817 515 776 q 362 853 418 849 q 257 833 306 858 q 179 761 208 808 q 150 660 150 714 q 149 551 147 606 q 150 442 150 497 q 150 388 150 414 q 153 338 150 363 q 166 288 157 313 q 194 238 175 263 q 283 176 236 188 q 388 168 329 165 l 413 117 l 517 117 l 476 214 q 514 263 500 242 q 535 304 528 283 q 544 349 542 325 q 546 408 546 374 m 457 790 q 494 747 481 769 q 513 702 507 725 q 519 654 518 679 q 519 603 519 629 l 519 399 q 517 340 519 363 q 506 299 514 318 q 485 262 499 281 q 450 215 472 243 l 479 143 l 428 143 l 404 193 q 353 192 378 192 q 305 197 328 192 q 260 213 282 201 q 215 249 238 225 q 187 294 196 271 q 174 341 178 317 q 172 390 171 365 q 172 440 172 415 l 172 643 q 194 742 172 697 q 268 811 217 786 q 365 828 314 835 q 457 790 417 822 m 463 317 q 468 352 467 328 q 469 402 469 376 q 469 452 469 428 q 468 488 468 476 l 468 656 q 454 715 468 689 q 418 756 440 740 q 368 778 396 772 q 314 777 340 783 q 265 753 288 771 q 231 704 243 735 q 225 669 226 693 q 224 618 224 644 q 224 567 224 592 q 224 532 224 543 l 224 364 q 254 281 224 313 q 324 242 285 250 q 403 252 364 235 q 463 317 443 269 m 444 507 q 447 431 444 468 q 442 356 449 394 q 409 286 439 308 q 344 265 379 264 q 279 291 308 267 q 250 364 250 315 l 250 514 q 249 589 250 551 q 250 663 247 626 q 283 733 253 710 q 350 756 314 757 q 415 729 386 754 q 444 656 444 704 l 444 507 m 379 324 q 394 351 392 339 q 396 376 396 363 l 396 435 l 396 656 q 388 684 396 672 q 367 701 379 696 q 340 705 354 707 q 313 693 325 703 q 298 670 300 682 q 296 643 296 658 l 296 588 l 296 364 q 305 335 296 347 q 326 317 314 324 q 353 312 339 311 q 379 324 368 313 m 749 944 l 749 946 l 749 944 m 749 946 l 749 944 l 749 946 z "},"s":{"ha":660,"x_min":26,"x_max":635,"o":"m 613 476 q 635 364 635 424 q 588 210 635 278 l 569 169 q 510 85 549 122 q 313 0 428 0 q 208 21 260 0 q 117 78 156 42 q 51 170 74 117 q 28 283 28 224 l 28 319 l 61 394 l 61 406 l 88 406 q 49 472 64 435 q 26 582 26 525 q 51 694 26 640 l 69 735 q 99 803 81 771 q 146 864 118 836 q 239 927 188 906 q 346 949 290 949 q 453 928 401 949 q 546 871 506 908 q 612 777 590 831 q 633 663 633 724 l 633 622 l 628 622 l 593 543 l 571 543 q 613 476 597 511 m 532 182 q 606 316 590 240 q 589 467 621 392 q 493 585 557 542 q 349 628 429 628 q 326 635 335 628 q 315 650 318 642 q 313 667 313 657 q 322 688 314 678 q 336 696 329 694 q 347 697 343 697 q 372 688 361 697 q 383 663 383 679 l 383 649 l 608 649 l 608 663 q 528 853 608 776 q 444 905 492 886 q 346 924 396 924 q 248 904 296 924 q 163 847 200 885 q 91 714 106 789 q 107 564 76 639 q 202 444 138 488 q 349 401 267 401 q 369 394 361 401 q 381 381 378 388 q 383 362 383 372 q 374 342 383 351 q 360 333 367 335 q 349 332 354 332 q 324 341 335 332 q 314 367 314 350 l 314 381 l 88 381 l 88 367 q 108 262 88 311 q 169 176 129 213 q 253 124 206 142 q 350 106 300 106 q 532 182 456 106 m 594 665 l 397 665 q 379 703 397 689 q 338 714 361 718 q 303 688 314 708 q 301 646 293 668 q 333 617 313 618 q 376 614 354 615 q 419 606 399 611 q 460 589 440 600 q 530 535 500 568 q 576 463 560 503 q 594 379 592 424 q 582 292 596 335 q 540 215 568 249 q 476 158 513 181 q 397 127 440 136 q 308 125 354 118 q 226 154 264 132 q 160 208 188 176 q 117 281 132 240 q 101 368 101 322 l 299 368 q 316 330 299 344 q 357 321 333 315 q 392 345 381 325 q 393 388 403 365 q 379 408 388 401 q 361 416 371 414 q 341 418 351 418 q 319 419 331 418 q 236 444 276 425 q 166 498 196 465 q 119 570 136 531 q 101 653 103 610 q 113 742 99 697 q 154 819 126 785 q 219 875 182 853 q 299 906 256 897 q 386 908 342 915 q 469 879 431 901 q 535 825 507 857 q 578 752 563 793 q 594 665 594 711 m 433 714 l 539 714 q 502 788 528 756 q 442 838 476 819 q 366 861 407 857 q 285 853 325 865 q 215 811 244 839 q 168 747 185 783 q 150 670 151 711 q 165 590 149 629 q 278 481 197 511 q 316 472 297 474 q 354 467 335 469 q 425 429 400 465 q 446 353 453 394 q 403 288 439 311 q 325 273 367 264 q 263 319 283 282 l 157 319 q 192 246 167 278 q 253 195 218 214 q 328 172 288 176 q 410 182 369 168 q 480 224 450 196 q 526 287 510 251 q 545 363 543 322 q 531 443 547 403 q 418 553 499 522 q 379 562 399 560 q 340 567 360 564 q 269 604 297 568 q 252 641 257 621 q 250 681 247 661 q 264 717 253 700 q 293 747 275 735 q 370 761 329 771 q 433 714 411 751 m 504 739 l 446 739 q 381 784 419 775 q 308 781 343 793 q 248 738 272 769 q 224 663 224 707 q 249 590 225 622 q 311 547 272 558 q 349 541 331 540 q 385 538 367 542 q 457 503 424 529 q 505 441 489 476 q 520 368 521 406 q 503 294 519 331 q 454 233 488 258 q 383 199 421 207 q 308 200 344 192 q 240 233 271 208 q 192 294 210 257 l 249 294 q 314 249 275 258 q 388 252 353 240 q 447 295 422 264 q 471 371 471 326 q 446 443 469 411 q 385 486 422 475 q 347 492 365 493 q 310 496 329 492 q 272 509 290 501 q 239 531 254 517 q 191 592 207 557 q 175 665 175 628 q 192 739 175 703 q 240 800 208 775 q 312 834 274 826 q 387 833 350 842 q 455 801 424 825 q 504 739 486 776 z "},"t":{"ha":610,"x_min":29,"x_max":576,"o":"m 63 950 l 576 950 l 576 672 l 571 672 l 535 593 l 457 593 l 457 81 l 453 81 l 417 0 l 146 0 l 146 593 l 29 593 l 29 863 l 63 939 l 63 950 m 550 697 l 550 924 l 89 924 l 89 697 l 206 697 l 206 106 l 432 106 l 432 697 l 550 697 m 535 913 l 535 715 l 417 715 l 417 124 l 219 124 l 219 715 l 103 715 l 103 913 l 535 913 l 535 913 m 486 765 l 486 864 l 151 864 l 151 765 l 268 765 l 268 172 l 367 172 l 367 765 l 486 765 l 486 765 m 461 839 l 461 789 l 343 789 l 343 197 l 293 197 l 293 789 l 175 789 l 175 839 l 461 839 l 461 839 z "},"u":{"ha":660,"x_min":26,"x_max":633,"o":"m 633 947 l 633 379 q 625 299 633 335 q 600 232 617 264 q 592 217 596 224 q 585 203 589 210 l 565 163 l 560 150 q 456 40 524 79 q 310 0 389 0 q 163 40 231 0 q 58 150 94 79 q 33 217 40 182 q 26 297 26 253 l 26 861 l 61 936 l 61 947 l 338 947 l 338 893 l 356 936 l 356 947 l 633 947 m 607 921 l 382 921 l 382 381 q 372 338 382 347 q 346 329 361 329 q 322 338 333 329 q 311 381 311 347 l 311 921 l 86 921 l 86 379 q 93 306 86 339 q 115 243 100 274 q 212 141 150 178 q 346 104 274 104 q 483 141 421 104 q 578 243 544 178 q 600 306 593 274 q 607 379 607 339 l 607 921 m 592 443 q 592 385 592 414 q 588 330 592 357 q 574 275 583 303 q 544 221 564 247 q 458 146 510 172 q 346 119 406 119 q 233 146 286 119 q 146 221 181 172 q 117 274 126 247 q 103 329 107 301 q 99 385 99 357 q 99 443 99 414 l 99 908 l 296 908 l 296 663 l 296 613 l 296 475 l 296 382 q 305 337 296 357 q 346 317 314 317 q 385 337 376 317 q 394 382 394 357 l 394 475 l 394 632 l 394 663 l 394 908 l 592 908 l 592 443 m 514 263 q 543 359 543 311 q 543 457 543 407 l 543 860 l 444 860 l 444 663 l 444 632 l 444 436 q 444 411 444 426 q 444 381 444 396 q 441 350 443 365 q 435 325 439 335 q 399 283 424 299 q 346 267 374 267 q 292 283 317 267 q 256 325 268 299 q 249 350 251 335 q 247 381 247 365 q 247 412 246 397 q 247 436 247 426 l 247 613 l 247 663 l 247 860 l 147 860 l 147 457 q 147 408 147 432 q 148 359 146 383 q 156 311 150 335 q 178 263 163 288 q 249 193 206 218 q 346 168 293 168 q 442 193 397 168 q 514 263 486 218 m 518 465 q 519 422 518 446 q 518 374 519 399 q 512 326 517 350 q 497 283 507 303 q 433 217 474 242 q 346 193 393 193 q 257 217 297 193 q 193 283 217 242 q 172 374 172 324 q 172 465 172 425 l 172 835 l 222 835 l 222 663 l 222 613 l 222 417 q 222 357 222 386 q 242 299 222 328 q 287 258 260 272 q 346 243 314 243 q 405 258 378 243 q 449 299 432 272 q 468 357 468 328 q 468 417 468 386 l 468 632 l 468 663 l 468 835 l 518 835 l 518 465 z "},"v":{"ha":660,"x_min":21,"x_max":640,"o":"m 358 949 l 640 949 l 504 79 l 497 79 l 463 0 l 156 0 l 21 863 l 56 940 l 56 949 l 335 949 l 342 903 l 356 932 l 358 949 m 482 106 l 611 924 l 381 924 l 347 703 l 313 924 l 83 924 l 213 106 l 482 106 m 593 911 l 468 122 l 224 122 l 100 911 l 300 911 l 346 614 l 393 911 l 593 911 l 593 911 m 426 171 l 535 863 l 435 863 l 346 297 l 257 863 l 157 863 l 267 171 l 426 171 l 426 171 m 507 838 l 406 196 l 356 196 l 338 196 l 288 196 l 186 838 l 236 838 l 328 258 l 365 258 l 457 838 l 507 838 l 507 838 z "},"w":{"ha":961,"x_min":28,"x_max":933,"o":"m 932 639 q 933 594 932 615 q 933 549 933 572 q 933 502 933 525 q 932 457 932 479 l 932 365 q 920 286 932 325 q 888 213 908 247 l 867 167 q 804 79 843 117 q 713 21 764 42 q 608 0 663 0 q 461 43 526 0 q 313 0 393 0 q 208 21 258 0 q 117 79 157 42 q 54 172 76 118 q 29 283 32 226 q 28 370 29 324 q 28 465 28 417 q 28 559 28 513 q 28 646 28 606 l 28 736 q 28 782 28 760 q 29 826 29 804 l 29 863 l 64 939 l 64 949 l 340 949 l 340 894 l 360 939 l 360 949 l 636 949 l 636 894 l 656 939 l 656 949 l 932 949 l 932 639 m 906 365 q 906 729 908 549 l 906 910 l 906 924 l 681 924 l 681 383 q 670 342 681 350 q 646 333 660 333 q 621 342 632 333 q 610 383 610 350 l 610 924 l 385 924 l 385 383 q 374 342 385 350 q 349 333 364 333 q 325 342 336 333 q 314 383 314 350 l 314 924 l 89 924 l 89 910 q 88 819 89 864 q 88 729 88 774 q 88 548 88 639 q 89 365 88 457 q 110 263 89 311 q 169 178 131 214 q 253 124 206 143 q 350 106 300 106 q 499 151 429 106 q 568 117 531 129 q 644 106 606 106 q 742 124 694 106 q 825 178 789 143 q 885 263 864 214 q 906 365 906 311 m 399 385 l 399 517 l 399 625 l 399 635 l 399 665 l 399 913 l 596 913 l 596 665 l 596 615 l 596 517 l 596 385 q 606 340 596 360 q 646 319 615 319 q 685 340 676 319 q 694 385 694 360 l 694 478 l 694 635 l 694 665 l 694 913 l 893 913 l 893 367 q 853 235 893 292 q 756 149 814 178 q 628 123 697 119 q 497 172 558 126 q 367 123 436 126 q 240 149 299 119 q 142 235 182 178 q 103 367 103 292 q 102 640 101 504 q 103 913 103 775 l 300 913 l 300 665 l 300 615 l 300 478 l 300 385 q 310 340 300 360 q 350 319 319 319 q 390 340 381 319 q 399 385 399 360 m 843 379 l 843 863 l 744 863 l 744 665 l 744 635 l 744 440 q 744 415 744 431 q 744 384 744 400 q 742 353 744 368 q 736 328 740 338 q 699 286 724 301 q 646 271 675 271 q 592 286 617 271 q 556 328 568 301 q 549 353 551 338 q 547 384 547 368 q 547 415 547 400 q 547 440 547 431 l 547 615 l 547 665 l 547 863 l 449 863 l 449 665 l 449 635 l 449 440 q 449 415 449 431 q 448 384 449 400 q 445 353 447 368 q 439 328 443 338 q 403 286 428 301 q 350 271 379 271 q 297 286 321 271 q 260 328 272 301 q 253 353 256 338 q 251 384 251 368 q 251 415 250 400 q 251 440 251 431 l 251 615 l 251 665 l 251 863 l 153 863 l 153 379 q 183 264 153 315 q 274 186 213 213 q 333 172 304 175 q 393 176 361 169 q 449 199 425 183 q 497 233 474 214 q 547 199 522 214 q 603 176 571 183 q 663 172 635 169 q 722 186 692 175 q 813 264 783 213 q 843 379 843 315 m 818 838 l 818 385 q 792 276 818 324 q 704 207 765 229 q 644 195 671 194 q 592 205 617 196 q 545 230 568 214 q 497 264 522 246 q 451 230 474 246 q 403 205 428 214 q 351 195 379 196 q 290 207 324 194 q 203 276 231 229 q 176 385 176 324 l 176 838 l 226 838 l 226 665 l 226 615 l 226 419 q 226 360 226 389 q 246 301 226 331 q 291 260 264 275 q 350 246 318 246 q 409 260 382 246 q 453 301 436 275 q 473 360 472 331 q 474 421 474 389 l 474 635 l 474 665 l 474 838 l 522 838 l 522 665 l 522 615 l 522 419 q 523 360 522 389 q 543 301 524 331 q 587 260 560 275 q 646 246 614 246 q 705 260 678 246 q 749 301 732 275 q 769 360 768 331 q 769 421 769 389 l 769 635 l 769 665 l 769 838 l 818 838 z "},"x":{"ha":701,"x_min":11,"x_max":689,"o":"m 614 268 l 689 79 l 681 79 l 646 0 l 356 0 l 331 63 l 303 0 l 11 0 l 43 79 l 183 431 q 142 537 164 482 q 97 647 119 592 q 53 758 75 703 q 11 863 31 813 l 46 940 l 43 949 l 342 949 l 365 890 l 389 949 l 689 949 l 514 514 l 614 268 m 651 104 l 488 514 l 651 924 l 407 924 l 367 818 l 325 924 l 81 924 l 244 514 l 81 104 l 325 104 l 367 210 l 407 104 l 651 104 m 631 911 l 472 517 l 631 121 l 418 121 l 367 250 l 315 121 l 103 121 l 260 517 l 103 911 l 315 911 l 367 782 l 418 911 l 631 911 m 419 517 l 558 861 l 451 861 l 367 649 l 282 861 l 175 861 l 314 517 l 175 171 l 282 171 l 367 383 l 451 171 l 558 171 l 419 517 m 521 838 l 393 517 l 521 196 l 468 196 l 367 450 l 265 196 l 211 196 l 340 517 l 211 838 l 265 838 l 367 583 l 468 838 l 521 838 z "},"z":{"ha":660,"x_min":17,"x_max":647,"o":"m 636 682 l 607 615 l 425 356 l 647 356 l 647 79 l 642 79 l 607 0 l 17 0 l 17 269 l 51 346 l 51 356 l 69 356 l 179 511 l 235 593 l 17 593 l 17 863 l 51 939 l 51 950 l 647 950 l 647 697 l 636 682 m 622 331 l 358 331 l 622 707 l 622 924 l 76 924 l 76 697 l 340 697 l 83 331 l 76 331 l 76 106 l 622 106 l 622 331 m 606 319 l 606 122 l 89 122 l 89 319 l 89 319 l 365 714 l 89 714 l 89 911 l 606 911 l 606 714 l 329 319 l 606 319 l 606 319 m 556 171 l 556 269 l 235 269 l 556 729 l 556 863 l 138 863 l 138 764 l 460 764 l 138 303 l 138 171 l 556 171 l 556 171 m 532 246 l 532 196 l 163 196 l 163 296 l 507 789 l 163 789 l 163 838 l 532 838 l 532 738 l 188 246 l 532 246 l 532 246 z "},":":{"ha":364,"x_min":24,"x_max":338,"o":"m 196 357 q 250 346 225 357 q 294 316 275 335 q 324 272 313 297 q 335 218 335 246 q 306 133 335 169 l 286 90 l 285 90 l 286 90 l 282 81 q 233 22 267 44 q 158 0 200 0 q 106 10 131 0 q 63 40 82 21 q 34 83 44 58 q 24 135 24 107 q 35 189 24 163 l 60 243 q 106 324 68 292 q 196 357 144 357 m 196 104 q 276 138 243 104 q 308 218 308 171 q 276 297 308 264 q 196 331 243 331 q 115 297 149 331 q 82 218 82 264 q 115 138 82 171 q 196 104 149 104 m 197 318 q 267 289 238 318 q 296 219 296 260 q 267 149 296 178 q 197 121 238 121 q 128 149 157 121 q 99 219 99 178 q 128 289 99 260 q 197 318 157 318 m 246 219 q 232 253 246 239 q 197 268 218 268 q 162 253 176 268 q 147 219 147 239 q 162 184 147 199 q 197 169 176 169 q 232 184 218 169 q 246 219 246 199 m 197 244 q 215 238 208 244 q 222 219 222 231 q 215 201 222 208 q 197 194 208 194 q 179 201 186 194 q 172 219 172 208 q 179 238 172 231 q 197 244 186 244 m 199 953 q 253 942 228 953 q 297 912 278 931 q 326 867 315 893 q 338 814 338 842 q 308 729 338 765 l 289 686 l 288 686 l 289 686 l 285 676 q 236 618 269 640 q 161 596 203 596 q 109 606 133 596 q 66 635 85 617 q 37 678 47 654 q 26 731 26 703 q 38 785 26 758 l 63 839 q 109 920 71 888 q 199 953 147 953 m 199 700 q 278 733 246 700 q 311 814 311 767 q 278 893 311 860 q 199 926 246 926 q 118 893 151 926 q 85 814 85 860 q 118 733 85 767 q 199 700 151 700 m 200 914 q 269 885 240 914 q 299 815 299 856 q 269 745 299 774 q 200 717 240 717 q 131 745 160 717 q 101 815 101 774 q 131 885 101 856 q 200 914 160 914 m 249 815 q 235 849 249 835 q 200 864 221 864 q 165 849 179 864 q 150 815 150 835 q 165 780 150 794 q 200 765 179 765 q 235 780 221 765 q 249 815 249 794 m 200 840 q 218 833 211 840 q 225 815 225 826 q 218 797 225 804 q 200 790 211 790 q 182 797 189 790 q 175 815 175 804 q 182 833 175 826 q 200 840 189 840 z "},";":{"ha":364,"x_min":19,"x_max":339,"o":"m 199 953 q 253 942 228 953 q 297 912 278 931 q 326 867 315 893 q 338 814 338 842 q 308 729 338 765 l 289 686 l 288 686 l 289 686 l 285 676 q 236 618 269 640 q 161 596 203 596 q 109 606 133 596 q 66 635 85 617 q 37 678 47 654 q 26 731 26 703 q 38 785 26 758 l 63 839 q 109 920 71 888 q 199 953 147 953 m 199 700 q 278 733 246 700 q 311 814 311 767 q 278 893 311 860 q 199 926 246 926 q 118 893 151 926 q 85 814 85 860 q 118 733 85 767 q 199 700 151 700 m 200 914 q 269 885 240 914 q 299 815 299 856 q 269 745 299 774 q 200 717 240 717 q 131 745 160 717 q 101 815 101 774 q 131 885 101 856 q 200 914 160 914 m 249 815 q 235 849 249 835 q 200 864 221 864 q 165 849 179 864 q 150 815 150 835 q 165 780 150 794 q 200 765 179 765 q 235 780 221 765 q 249 815 249 794 m 200 840 q 218 833 211 840 q 225 815 225 826 q 218 797 225 804 q 200 790 211 790 q 182 797 189 790 q 175 815 175 804 q 182 833 175 826 q 200 840 189 840 m 332 236 q 333 206 339 221 q 286 56 329 125 l 271 26 l 272 26 l 268 17 q 164 -117 235 -57 q 147 -126 157 -122 q 126 -131 138 -131 q 85 -114 101 -131 q 65 -74 68 -97 q 63 -49 64 -61 q 60 -28 63 -36 q 55 -14 57 -21 q 47 1 53 -7 l 47 6 q 44 10 46 8 q 40 19 42 13 q 26 75 32 44 q 22 138 19 106 q 26 165 24 153 q 33 190 28 178 l 61 251 q 109 326 72 296 q 194 356 146 356 q 249 346 226 356 q 293 314 271 336 q 324 268 314 293 l 332 243 l 332 236 m 308 211 q 308 225 310 217 l 308 228 q 308 233 308 231 q 307 238 307 235 l 300 260 q 289 280 294 271 q 275 296 283 289 q 238 322 257 314 q 194 331 219 331 q 116 298 149 331 q 82 218 83 265 q 85 160 79 188 q 99 108 92 133 l 107 89 q 118 61 114 78 q 122 35 121 49 q 125 11 124 22 q 137 -15 126 -4 q 163 -25 147 -25 q 188 -17 176 -25 q 308 211 307 83 m 294 224 q 296 220 294 222 q 294 218 297 218 q 263 93 294 147 q 179 -4 232 39 q 154 -8 168 -14 q 139 14 140 -1 q 136 40 138 28 q 132 65 135 53 q 124 91 129 79 q 114 115 118 103 q 99 167 104 142 q 97 219 94 192 q 126 289 97 260 q 196 318 156 318 q 265 289 236 318 q 288 257 279 275 q 293 238 290 249 q 294 233 293 235 q 294 228 294 231 l 294 224 m 183 67 q 231 135 215 100 q 246 218 246 171 l 246 219 q 231 255 246 240 q 194 268 215 269 q 159 253 172 268 q 146 217 146 238 l 146 214 l 146 197 q 147 191 146 194 q 147 185 147 188 q 154 151 149 168 q 163 124 158 138 q 174 97 168 111 q 179 82 176 93 q 183 67 181 78 m 221 218 q 192 118 221 165 q 182 144 186 131 q 175 169 178 157 q 173 182 174 176 q 171 193 172 188 q 170 203 171 199 q 171 211 169 207 l 171 215 q 175 235 171 228 q 194 243 179 242 q 213 238 206 244 q 221 219 221 231 l 221 218 z "},"H":{"ha":660,"x_min":25,"x_max":633,"o":"m 356 949 l 633 949 l 633 79 l 628 79 l 592 0 l 322 0 l 322 57 l 296 0 l 25 0 l 25 863 l 60 938 l 60 949 l 336 949 l 336 896 l 356 938 l 356 949 m 607 106 l 607 924 l 381 924 l 381 628 l 311 628 l 311 924 l 85 924 l 85 106 l 311 106 l 311 401 l 381 401 l 381 106 l 607 106 m 592 414 l 592 117 l 393 117 l 393 414 l 294 414 l 294 117 l 97 117 l 97 414 l 97 611 l 97 907 l 294 907 l 294 611 l 393 611 l 393 907 l 592 907 l 592 611 l 592 414 l 592 414 m 542 167 l 542 857 l 443 857 l 443 561 l 246 561 l 246 857 l 147 857 l 147 167 l 246 167 l 246 463 l 443 463 l 443 167 l 542 167 l 542 167 m 517 833 l 517 192 l 468 192 l 468 488 l 221 488 l 221 192 l 172 192 l 172 833 l 221 833 l 221 536 l 468 536 l 468 833 l 517 833 l 517 833 z "},"D":{"ha":660,"x_min":25,"x_max":632,"o":"m 381 365 q 374 344 381 354 q 356 332 367 335 q 332 331 349 331 l 315 331 l 310 331 l 310 699 l 315 699 q 325 699 321 699 q 332 700 329 700 q 356 696 344 700 q 358 694 357 696 q 360 693 360 694 l 363 693 l 364 693 l 365 692 l 367 692 l 367 690 l 368 689 l 369 688 l 371 688 l 372 686 l 372 685 l 376 679 q 378 678 378 679 l 378 676 q 378 674 378 675 q 379 672 379 674 q 381 671 379 672 l 381 669 q 383 652 383 661 q 381 633 382 643 l 381 614 l 381 490 l 381 447 l 381 365 m 346 949 q 458 926 406 949 q 549 865 510 904 q 610 774 588 826 q 632 663 632 722 l 632 367 q 586 213 632 282 l 567 168 q 465 47 533 93 q 308 0 396 0 l 25 0 l 25 863 l 60 938 l 60 949 l 346 949 m 606 663 q 585 764 606 717 q 530 847 565 811 q 447 903 494 882 q 346 924 400 924 l 85 924 l 85 106 l 346 106 q 447 126 400 106 q 530 181 494 146 q 585 265 565 217 q 606 367 606 313 l 606 663 m 593 663 l 593 367 q 574 271 593 315 q 521 193 554 226 q 442 140 488 160 q 346 121 397 121 l 297 121 l 247 121 l 100 121 l 100 910 l 247 910 l 297 910 l 346 910 q 442 890 397 910 q 521 838 488 871 q 574 759 554 804 q 593 663 593 714 m 543 367 l 543 663 q 528 740 543 704 q 485 802 513 775 q 423 844 458 829 q 346 860 388 860 l 297 860 l 247 860 l 149 860 l 149 169 l 297 169 l 346 169 q 423 185 388 169 q 485 227 458 200 q 528 290 513 254 q 543 367 543 326 m 519 663 l 519 367 q 506 299 519 331 q 468 244 492 268 q 413 208 444 221 q 346 194 382 194 l 321 194 l 297 194 l 174 194 l 174 836 l 247 836 l 297 836 l 346 836 q 413 822 382 836 q 468 785 444 808 q 506 730 492 761 q 519 663 519 699 m 469 367 l 469 663 q 433 750 469 714 q 346 786 397 786 l 222 786 l 222 713 l 222 417 l 222 243 l 346 243 q 433 279 397 243 q 469 367 469 315 m 444 663 l 444 367 q 415 297 444 326 q 346 268 386 268 l 247 268 l 247 417 l 247 713 l 247 761 l 346 761 q 415 732 386 761 q 444 663 444 703 m 396 365 q 397 428 397 397 q 396 490 396 458 l 396 615 q 397 645 396 631 q 394 675 399 660 q 393 678 393 676 l 393 679 q 392 681 393 681 l 392 682 q 390 685 392 683 l 390 686 l 388 689 q 386 690 388 690 l 386 693 q 385 694 385 693 q 382 697 385 694 q 381 699 381 697 q 379 700 379 699 q 376 701 376 701 q 374 703 375 703 q 371 706 372 704 q 369 706 369 706 q 368 707 369 707 q 364 708 367 708 q 361 710 363 710 q 358 711 360 710 q 328 714 343 715 q 297 713 313 713 l 297 614 l 297 318 q 328 317 313 318 q 360 319 343 315 q 385 336 375 324 q 396 365 394 349 z "},"I":{"ha":367,"x_min":25,"x_max":336,"o":"m 60 949 l 336 949 l 336 79 l 332 79 l 296 0 l 25 0 l 25 863 l 60 938 l 60 949 m 311 106 l 311 924 l 85 924 l 85 106 l 311 106 m 297 910 l 297 119 l 100 119 l 100 910 l 297 910 l 297 910 m 247 169 l 247 860 l 149 860 l 149 169 l 247 169 l 247 169 m 224 835 l 224 194 l 174 194 l 174 835 l 224 835 l 224 835 z "},"B":{"ha":660,"x_min":28,"x_max":639,"o":"m 385 667 q 374 641 385 651 q 350 631 364 631 l 315 631 l 315 701 l 350 701 q 374 692 364 701 q 385 667 385 682 m 385 365 q 374 340 385 350 q 350 331 364 331 l 315 331 l 315 400 l 350 400 q 374 390 364 400 q 385 365 385 381 m 571 167 l 575 176 l 571 167 m 636 386 q 632 310 639 347 q 607 239 625 272 q 592 213 600 224 l 590 210 l 589 208 l 582 190 l 579 185 l 581 189 l 576 181 l 571 167 l 565 157 q 523 93 549 121 q 465 44 497 65 q 311 0 397 0 l 28 0 l 28 863 l 63 938 l 63 950 l 349 950 q 506 903 438 950 l 506 904 q 563 855 538 885 q 607 790 588 825 q 631 719 624 758 q 636 643 638 679 q 597 514 632 572 q 624 453 615 486 q 636 386 633 421 m 583 250 q 610 385 617 315 q 597 453 608 419 q 565 514 585 486 q 597 576 585 543 q 610 644 608 610 q 583 779 617 714 q 492 882 549 844 q 349 924 429 924 l 88 924 l 88 106 l 349 106 q 492 146 428 106 q 543 192 519 165 q 583 250 567 218 m 596 222 l 597 225 l 600 231 l 596 222 m 251 122 l 103 122 l 103 913 l 251 913 q 333 913 293 913 q 409 905 372 913 q 479 877 446 897 q 544 817 513 857 q 583 745 569 783 q 597 667 596 707 q 585 589 597 628 q 547 517 572 550 q 585 444 572 483 q 597 366 597 406 q 583 288 596 326 q 544 217 569 250 q 479 157 513 176 q 409 130 446 138 q 333 122 372 122 q 251 122 293 122 m 546 644 q 542 717 550 685 q 510 781 533 749 q 453 835 483 818 q 391 859 424 853 q 324 864 358 865 q 251 863 289 863 l 153 863 l 153 172 l 251 172 q 324 171 289 172 q 391 176 358 169 q 453 199 424 182 q 510 254 483 217 q 542 318 533 286 q 546 390 550 350 q 525 458 542 429 q 485 517 508 488 q 525 576 508 547 q 546 644 542 606 m 251 838 q 318 840 285 838 q 385 835 351 842 q 447 810 421 826 q 493 761 472 793 q 520 699 514 729 q 519 633 526 669 q 494 571 513 597 q 454 517 475 544 q 494 464 475 490 q 519 401 513 438 q 520 335 526 365 q 493 274 514 306 q 447 224 472 242 q 385 200 421 207 q 318 195 351 193 q 251 197 285 197 l 176 197 l 176 838 l 251 838 m 385 547 q 449 592 425 558 q 474 665 474 625 q 449 740 474 707 q 385 783 425 772 q 353 788 376 786 q 305 789 331 789 q 257 789 279 789 q 226 789 235 789 l 226 542 q 257 542 235 542 q 305 542 279 542 q 353 543 331 542 q 385 547 376 544 m 385 251 q 449 295 425 263 q 474 369 474 328 q 449 443 474 410 q 385 488 425 476 q 353 492 376 490 q 305 493 331 493 q 257 493 279 493 q 226 493 235 493 l 226 246 q 257 246 235 246 q 305 246 279 246 q 353 247 331 246 q 385 251 376 249 m 449 665 q 429 607 449 633 q 378 571 410 581 q 353 567 371 568 q 315 567 335 567 q 276 567 294 567 q 251 567 258 567 l 251 764 q 276 764 258 764 q 315 764 294 764 q 353 763 335 764 q 378 760 371 761 q 429 724 410 750 q 449 665 449 699 m 399 665 q 389 695 399 682 q 364 713 379 708 q 331 717 347 718 q 300 715 315 715 l 300 615 q 331 614 315 615 q 364 618 347 613 q 389 635 379 622 q 399 665 399 649 m 449 369 q 429 310 449 336 q 378 275 410 285 q 353 272 371 272 q 315 271 335 271 q 276 271 294 271 q 251 271 258 271 l 251 468 q 276 468 258 468 q 315 468 294 468 q 353 467 335 468 q 378 464 371 465 q 429 428 410 454 q 449 369 449 401 m 399 369 q 384 403 399 389 q 350 418 369 418 l 300 418 l 300 319 l 350 319 q 384 334 369 319 q 399 369 399 349 z "},"R":{"ha":660,"x_min":28,"x_max":633,"o":"m 633 661 q 594 514 633 583 q 627 419 621 467 q 633 321 633 371 l 633 79 l 629 79 l 593 0 l 324 0 l 324 57 l 297 0 l 28 0 l 28 863 l 61 936 l 61 949 l 307 949 q 378 946 343 949 q 446 931 413 943 q 511 898 479 919 q 572 839 543 876 q 619 755 604 800 q 633 661 633 710 m 356 369 l 339 332 l 356 368 l 356 369 m 608 321 q 601 420 608 374 q 563 514 594 467 q 598 589 586 549 q 608 669 610 629 q 593 749 607 710 q 553 822 579 789 q 496 876 525 857 q 435 906 467 896 q 372 919 404 917 q 307 922 340 922 l 278 922 l 249 922 l 88 922 l 88 104 l 313 104 l 313 401 l 328 401 q 375 388 363 401 q 382 354 381 379 q 383 317 383 329 l 383 306 l 383 104 l 608 104 l 608 321 m 357 696 q 383 661 383 686 q 357 628 383 635 q 335 625 350 625 l 318 625 l 313 625 l 313 696 q 318 697 314 697 l 335 697 q 357 696 350 697 m 519 649 q 495 576 515 606 q 451 514 475 546 q 499 446 478 479 q 519 364 519 413 l 519 193 l 469 193 l 469 317 q 469 376 469 347 q 450 435 469 406 q 405 476 432 461 q 346 490 378 490 l 224 490 l 224 193 l 174 193 l 174 835 l 326 835 q 401 826 368 835 q 467 788 435 818 q 508 724 494 760 q 519 649 522 688 m 382 544 q 446 589 422 556 q 469 663 469 622 q 446 736 469 703 q 382 781 422 769 q 351 785 374 783 q 302 786 328 786 q 254 786 276 786 q 224 786 232 786 l 224 539 q 254 539 232 539 q 302 539 276 539 q 351 540 328 539 q 382 544 374 542 m 375 757 q 426 722 407 747 q 446 663 446 696 q 426 603 446 629 q 375 568 407 578 q 350 565 368 565 q 312 564 332 564 q 274 564 292 564 q 249 564 256 564 l 249 761 q 274 761 256 761 q 312 761 292 761 q 350 760 332 761 q 375 757 368 758 m 361 615 q 386 633 376 619 q 396 663 396 646 q 386 692 396 679 q 361 710 376 706 q 328 714 344 715 q 297 713 313 713 l 297 614 q 328 612 313 614 q 361 615 344 610 m 542 814 q 580 742 567 781 q 594 665 593 704 q 582 586 594 625 q 544 514 569 547 q 586 422 579 469 q 593 322 593 375 l 593 119 l 396 119 l 396 307 q 397 326 396 314 q 397 352 397 339 q 393 378 396 365 q 385 397 390 390 q 342 415 369 415 q 297 415 315 415 l 297 119 l 249 119 l 100 119 l 100 910 l 249 910 q 330 910 290 910 q 406 902 369 910 q 476 874 443 894 q 542 814 510 854 m 544 350 q 541 400 544 379 q 531 439 538 421 q 511 474 524 457 q 482 514 499 492 q 527 584 508 550 q 544 667 546 618 q 474 814 542 756 q 399 852 438 844 q 317 860 361 860 l 150 860 l 150 169 l 249 169 l 249 465 q 305 467 276 465 q 361 464 333 468 q 411 441 389 460 q 442 394 433 422 q 444 372 443 388 q 446 338 446 356 q 446 305 446 321 q 446 282 446 289 l 446 169 l 544 169 l 544 350 z "},"r":{"ha":660,"x_min":28,"x_max":633,"o":"m 633 661 q 594 514 633 583 q 627 419 621 467 q 633 321 633 371 l 633 79 l 629 79 l 593 0 l 324 0 l 324 57 l 297 0 l 28 0 l 28 863 l 61 936 l 61 949 l 307 949 q 378 946 343 949 q 446 931 413 943 q 511 898 479 919 q 572 839 543 876 q 619 755 604 800 q 633 661 633 710 m 356 369 l 339 332 l 356 368 l 356 369 m 608 321 q 601 420 608 374 q 563 514 594 467 q 598 589 586 549 q 608 669 610 629 q 593 749 607 710 q 553 822 579 789 q 496 876 525 857 q 435 906 467 896 q 372 919 404 917 q 307 922 340 922 l 278 922 l 249 922 l 88 922 l 88 104 l 313 104 l 313 401 l 328 401 q 375 388 363 401 q 382 354 381 379 q 383 317 383 329 l 383 306 l 383 104 l 608 104 l 608 321 m 357 696 q 383 661 383 686 q 357 628 383 635 q 335 625 350 625 l 318 625 l 313 625 l 313 696 q 318 697 314 697 l 335 697 q 357 696 350 697 m 519 649 q 495 576 515 606 q 451 514 475 546 q 499 446 478 479 q 519 364 519 413 l 519 193 l 469 193 l 469 317 q 469 376 469 347 q 450 435 469 406 q 405 476 432 461 q 346 490 378 490 l 224 490 l 224 193 l 174 193 l 174 835 l 326 835 q 401 826 368 835 q 467 788 435 818 q 508 724 494 760 q 519 649 522 688 m 382 544 q 446 589 422 556 q 469 663 469 622 q 446 736 469 703 q 382 781 422 769 q 351 785 374 783 q 302 786 328 786 q 254 786 276 786 q 224 786 232 786 l 224 539 q 254 539 232 539 q 302 539 276 539 q 351 540 328 539 q 382 544 374 542 m 375 757 q 426 722 407 747 q 446 663 446 696 q 426 603 446 629 q 375 568 407 578 q 350 565 368 565 q 312 564 332 564 q 274 564 292 564 q 249 564 256 564 l 249 761 q 274 761 256 761 q 312 761 292 761 q 350 760 332 761 q 375 757 368 758 m 361 615 q 386 633 376 619 q 396 663 396 646 q 386 692 396 679 q 361 710 376 706 q 328 714 344 715 q 297 713 313 713 l 297 614 q 328 612 313 614 q 361 615 344 610 m 542 814 q 580 742 567 781 q 594 665 593 704 q 582 586 594 625 q 544 514 569 547 q 586 422 579 469 q 593 322 593 375 l 593 119 l 396 119 l 396 307 q 397 326 396 314 q 397 352 397 339 q 393 378 396 365 q 385 397 390 390 q 342 415 369 415 q 297 415 315 415 l 297 119 l 249 119 l 100 119 l 100 910 l 249 910 q 330 910 290 910 q 406 902 369 910 q 476 874 443 894 q 542 814 510 854 m 544 350 q 541 400 544 379 q 531 439 538 421 q 511 474 524 457 q 482 514 499 492 q 527 584 508 550 q 544 667 546 618 q 474 814 542 756 q 399 852 438 844 q 317 860 361 860 l 150 860 l 150 169 l 249 169 l 249 465 q 305 467 276 465 q 361 464 333 468 q 411 441 389 460 q 442 394 433 422 q 444 372 443 388 q 446 338 446 356 q 446 305 446 321 q 446 282 446 289 l 446 169 l 544 169 l 544 350 z "},"Y":{"ha":660,"x_min":25,"x_max":632,"o":"m 224 629 q 255 532 224 572 q 347 492 286 492 q 439 532 407 492 q 471 629 471 572 l 471 836 l 519 836 l 519 719 q 521 660 519 689 q 519 601 522 631 q 472 496 514 539 q 424 460 450 472 q 371 438 399 449 l 371 196 l 322 196 l 322 438 q 269 460 294 449 q 221 496 243 472 q 175 601 179 540 q 173 660 172 631 q 174 719 174 689 l 174 836 l 224 836 l 224 629 m 632 949 l 632 618 q 588 458 632 528 l 567 413 q 485 308 539 350 l 485 79 l 479 79 l 443 0 l 174 0 l 174 281 q 64 385 103 318 q 25 535 25 451 l 25 863 l 58 938 l 58 949 l 336 949 l 336 896 l 356 938 l 356 949 l 632 949 m 607 924 l 381 924 l 381 628 q 370 585 381 594 q 346 576 360 576 q 322 585 332 576 q 311 628 311 594 l 311 924 l 85 924 l 85 618 q 124 475 85 539 q 232 378 164 411 l 232 104 l 458 104 l 458 378 q 568 475 529 411 q 607 618 607 539 l 607 924 m 347 565 q 387 585 378 565 q 396 631 396 606 l 396 724 l 396 911 l 593 911 l 593 619 q 555 482 593 544 q 446 389 517 419 l 446 121 l 249 121 l 249 389 q 139 482 178 419 q 100 619 100 544 l 100 911 l 297 911 l 297 724 l 297 631 q 306 585 297 606 q 347 565 315 565 m 431 563 q 394 528 417 540 q 347 515 372 515 q 299 528 321 515 q 263 563 276 540 q 248 610 247 586 q 249 660 249 635 l 249 861 l 150 861 q 149 734 150 797 q 150 607 147 671 q 193 490 151 542 q 242 449 215 464 q 297 421 268 433 l 297 171 l 396 171 l 396 421 q 453 449 426 433 q 500 490 479 464 q 533 545 522 518 q 544 607 543 572 q 546 734 547 671 q 544 861 544 797 l 446 861 l 446 660 q 446 610 446 635 q 431 563 446 586 z "},"y":{"ha":660,"x_min":25,"x_max":632,"o":"m 224 629 q 255 532 224 572 q 347 492 286 492 q 439 532 407 492 q 471 629 471 572 l 471 836 l 519 836 l 519 719 q 521 660 519 689 q 519 601 522 631 q 472 496 514 539 q 424 460 450 472 q 371 438 399 449 l 371 196 l 322 196 l 322 438 q 269 460 294 449 q 221 496 243 472 q 175 601 179 540 q 173 660 172 631 q 174 719 174 689 l 174 836 l 224 836 l 224 629 m 632 949 l 632 618 q 588 458 632 528 l 567 413 q 485 308 539 350 l 485 79 l 479 79 l 443 0 l 174 0 l 174 281 q 64 385 103 318 q 25 535 25 451 l 25 863 l 58 938 l 58 949 l 336 949 l 336 896 l 356 938 l 356 949 l 632 949 m 607 924 l 381 924 l 381 628 q 370 585 381 594 q 346 576 360 576 q 322 585 332 576 q 311 628 311 594 l 311 924 l 85 924 l 85 618 q 124 475 85 539 q 232 378 164 411 l 232 104 l 458 104 l 458 378 q 568 475 529 411 q 607 618 607 539 l 607 924 m 347 565 q 387 585 378 565 q 396 631 396 606 l 396 724 l 396 911 l 593 911 l 593 619 q 555 482 593 544 q 446 389 517 419 l 446 121 l 249 121 l 249 389 q 139 482 178 419 q 100 619 100 544 l 100 911 l 297 911 l 297 724 l 297 631 q 306 585 297 606 q 347 565 315 565 m 431 563 q 394 528 417 540 q 347 515 372 515 q 299 528 321 515 q 263 563 276 540 q 248 610 247 586 q 249 660 249 635 l 249 861 l 150 861 q 149 734 150 797 q 150 607 147 671 q 193 490 151 542 q 242 449 215 464 q 297 421 268 433 l 297 171 l 396 171 l 396 421 q 453 449 426 433 q 500 490 479 464 q 533 545 522 518 q 544 607 543 572 q 546 734 547 671 q 544 861 544 797 l 446 861 l 446 660 q 446 610 446 635 q 431 563 446 586 z "},"f":{"ha":660,"x_min":28,"x_max":633,"o":"m 633 671 l 629 671 l 621 653 l 633 653 l 633 375 l 629 375 l 593 296 l 339 296 l 339 79 l 333 79 l 297 0 l 28 0 l 28 863 l 61 938 l 61 949 l 633 949 l 633 671 m 608 697 l 608 924 l 88 924 l 88 106 l 313 106 l 313 401 l 608 401 l 608 628 l 313 628 l 313 697 l 608 697 m 299 121 l 250 121 l 101 121 l 101 910 l 250 910 l 299 910 l 594 910 l 594 713 l 299 713 l 299 614 l 594 614 l 594 417 l 299 417 l 299 121 m 150 861 l 150 169 l 250 169 l 250 465 l 546 465 l 546 565 l 250 565 l 250 763 l 546 763 l 546 861 l 299 861 l 250 861 l 150 861 m 521 540 l 521 490 l 225 490 l 225 194 l 175 194 l 175 836 l 521 836 l 521 786 l 225 786 l 225 540 l 521 540 z "}}}
